{"glyphs":{"0":{"ha":810,"x_min":64,"x_max":746,"o":"m 64 476 q 240 917 64 804 q 404 958 306 958 q 672 808 585 958 q 746 476 746 683 q 568 36 746 150 q 404 -6 503 -6 q 136 146 224 -6 q 64 476 64 269 m 210 476 q 317 142 210 225 q 404 114 353 114 q 554 219 503 114 q 600 476 600 314 q 493 811 600 729 q 403 839 456 839 q 315 810 351 839 q 256 733 278 782 q 210 476 210 638 z "},"1":{"ha":503,"x_min":35,"x_max":482,"o":"m 214 115 l 214 804 l 56 772 l 35 872 l 325 963 l 353 950 l 353 110 l 482 93 l 482 0 l 72 0 l 57 92 l 214 115 z "},"2":{"ha":719,"x_min":31,"x_max":667,"o":"m 56 96 q 125 170 83 126 q 213 266 167 214 q 307 375 260 318 q 392 489 354 432 q 482 694 476 613 l 482 704 q 436 808 482 771 q 347 839 396 839 q 224 803 278 839 l 186 686 l 31 769 q 159 908 79 858 q 339 958 239 958 q 539 900 461 958 q 628 708 628 835 q 475 385 628 579 q 331 215 394 281 q 242 119 268 150 l 521 119 l 575 268 l 667 268 l 638 0 l 72 0 l 56 96 z "},"3":{"ha":726,"x_min":38,"x_max":660,"o":"m 118 200 q 335 114 219 114 q 470 157 426 114 q 514 252 514 200 q 495 335 514 304 q 444 386 476 365 q 285 424 386 424 l 214 424 l 214 543 q 422 571 358 543 q 503 704 503 607 q 457 808 503 772 q 363 840 417 840 q 278 828 308 840 q 229 806 249 817 l 178 692 l 38 772 q 170 910 86 861 q 371 958 254 958 q 561 897 481 958 q 649 713 649 829 q 606 576 649 633 q 493 493 564 518 q 601 421 556 472 q 660 277 660 356 q 631 147 660 199 q 558 61 603 94 q 354 -6 469 -6 q 44 89 160 -6 l 118 200 z "},"4":{"ha":719,"x_min":3,"x_max":667,"o":"m 553 274 l 553 114 l 665 96 l 665 1 l 224 1 l 224 96 l 415 118 l 415 274 l 49 274 l 3 378 l 403 960 l 553 960 l 553 393 l 667 393 l 667 274 l 553 274 m 415 393 l 415 789 l 139 393 l 415 393 z "},"5":{"ha":697,"x_min":26,"x_max":651,"o":"m 232 521 q 110 513 168 521 l 110 914 l 154 958 l 597 958 l 597 839 l 242 839 l 242 639 l 275 639 q 342 637 299 639 q 444 615 386 635 q 549 558 503 596 q 651 326 651 472 q 543 86 651 182 q 290 -6 438 -6 q 138 22 206 -6 q 26 90 71 50 l 94 197 q 299 114 185 114 q 447 172 388 114 q 506 317 506 228 q 426 479 506 428 q 232 521 363 521 z "},"6":{"ha":774,"x_min":60,"x_max":719,"o":"m 160 819 q 278 927 208 888 q 422 967 349 967 q 540 952 494 967 q 618 917 585 938 q 707 831 669 885 l 575 738 l 506 836 q 433 847 472 847 q 352 822 393 847 q 281 750 311 796 q 207 517 215 654 q 292 580 239 553 q 414 607 346 607 q 538 587 482 607 q 633 528 593 567 q 719 306 719 444 q 636 89 719 176 q 415 -6 547 -6 q 139 149 236 -6 q 60 471 60 276 q 160 819 60 682 m 228 292 q 408 114 275 114 q 533 171 490 114 q 574 301 574 222 q 526 436 574 383 q 408 489 479 489 q 281 432 332 489 q 228 292 231 376 z "},"7":{"ha":617,"x_min":38,"x_max":610,"o":"m 125 671 l 38 671 l 38 958 l 585 958 l 610 922 l 319 0 l 176 0 l 169 38 l 474 839 l 160 839 l 125 671 z "},"8":{"ha":739,"x_min":57,"x_max":682,"o":"m 57 256 q 226 514 57 419 q 137 599 174 549 q 100 716 100 650 q 124 826 100 782 q 188 900 149 869 q 372 967 269 967 q 558 906 479 967 q 643 733 643 838 q 558 567 643 636 q 508 528 535 546 q 624 438 594 476 q 682 269 682 363 q 586 69 682 150 q 371 -7 497 -7 q 153 58 242 -7 q 57 256 57 131 m 338 454 q 203 260 203 381 q 261 147 203 189 q 358 113 310 113 q 438 124 407 113 q 489 156 468 136 q 536 258 536 200 q 411 417 536 353 q 338 454 376 435 m 394 586 q 468 648 439 614 q 497 731 497 682 q 463 814 497 781 q 372 847 428 847 q 281 816 317 847 q 246 747 246 785 q 259 685 246 708 q 293 644 272 661 q 394 586 325 618 z "},"9":{"ha":754,"x_min":58,"x_max":692,"o":"m 136 199 q 338 114 233 114 q 543 417 524 114 q 448 358 501 376 q 343 340 394 340 q 238 360 292 340 q 144 417 183 379 q 60 636 60 496 q 139 867 60 774 q 372 964 224 964 q 624 806 540 964 q 692 469 692 676 q 606 139 692 271 q 499 34 564 74 q 361 -6 433 -6 q 243 5 289 -6 q 161 31 197 15 q 58 90 111 51 l 136 199 m 364 460 q 422 470 393 460 q 475 501 451 481 q 535 621 529 550 q 431 826 511 776 q 363 844 401 844 q 250 794 294 844 q 206 649 206 744 q 253 506 206 556 q 364 460 296 460 z "}," ":{"ha":333,"x_min":0,"x_max":0,"o":""},"!":{"ha":372,"x_min":92,"x_max":283,"o":"m 184 -6 q 167 -6 184 -6 q 126 18 150 -6 q 103 76 103 42 q 126 135 103 111 q 184 158 150 158 q 243 134 218 158 q 268 76 268 110 q 243 19 268 43 q 184 -6 218 -6 m 92 940 l 254 958 l 283 906 l 232 329 l 136 329 l 92 940 z "},"\"":{"ha":449,"x_min":50,"x_max":399,"o":"m 50 957 l 179 971 l 203 929 l 163 649 l 86 649 l 50 957 m 246 957 l 375 971 l 399 929 l 358 649 l 282 649 l 246 957 z "},"#":{"ha":897,"x_min":40,"x_max":851,"o":"m 97 671 l 115 703 l 344 703 l 440 960 l 532 960 l 547 940 l 458 703 l 599 703 l 692 960 l 783 960 l 799 940 l 713 703 l 843 703 q 851 692 851 703 l 851 599 l 674 599 l 617 440 l 786 440 q 794 429 794 440 l 794 336 l 578 336 l 481 67 l 389 67 l 374 85 l 465 336 l 324 336 l 225 67 l 133 67 l 118 85 l 210 336 l 58 336 l 40 408 l 58 440 l 249 440 l 307 599 l 115 599 l 97 671 m 363 440 l 503 440 l 560 599 l 421 599 l 363 440 z "},"$":{"ha":669,"x_min":46,"x_max":628,"o":"m 275 -4 q 60 47 151 1 l 60 282 l 160 282 l 185 133 q 304 111 244 111 q 468 189 424 111 q 483 258 483 215 q 458 334 483 300 q 373 397 432 368 q 256 450 314 426 q 152 506 199 474 q 76 587 106 539 q 46 697 46 635 q 63 800 46 760 q 111 871 81 840 q 275 953 172 932 l 275 1214 l 400 1214 l 400 958 q 585 918 493 950 l 604 679 l 508 679 l 447 829 q 342 843 406 843 q 235 814 279 843 q 192 725 192 785 q 261 611 192 656 q 329 574 292 590 q 416 536 367 558 q 508 483 465 514 q 578 419 551 453 q 628 283 628 357 q 610 165 628 210 q 561 86 592 119 q 400 3 500 24 l 400 -267 l 275 -267 l 275 -4 z "},"%":{"ha":999,"x_min":43,"x_max":957,"o":"m 43 718 q 55 802 43 760 q 90 879 67 844 q 239 958 144 958 q 386 886 333 958 q 435 719 435 818 q 381 546 435 615 q 239 475 326 475 q 89 556 142 475 q 43 718 43 624 m 238 868 q 216 868 238 868 q 170 824 194 868 q 146 717 146 781 q 172 610 146 654 q 239 567 197 567 q 306 611 281 567 q 331 719 331 656 q 306 825 331 782 q 238 868 282 868 m 567 236 q 614 397 567 331 q 761 476 668 476 q 908 403 856 476 q 957 236 957 338 q 904 64 957 133 q 761 -6 850 -6 q 613 74 667 -6 q 567 236 567 142 m 760 386 q 739 386 760 386 q 694 342 717 386 q 671 235 671 299 q 696 128 671 171 q 763 85 721 85 q 828 128 804 85 q 853 236 853 172 q 828 343 853 300 q 760 386 804 386 m 854 960 l 860 940 l 251 0 l 131 0 l 122 18 l 738 960 l 854 960 z "},"&":{"ha":933,"x_min":44,"x_max":938,"o":"m 938 40 q 796 -4 885 -4 q 599 89 707 -4 q 351 -6 497 -6 q 131 78 218 -6 q 44 279 44 158 q 219 565 44 426 q 144 782 144 693 q 208 947 144 883 q 374 1015 276 1015 q 528 960 472 1015 q 583 821 583 906 q 406 544 583 694 q 529 389 465 463 l 601 303 q 654 456 638 378 l 592 456 l 569 553 l 786 553 l 801 533 q 700 224 771 351 l 689 206 q 796 113 772 119 q 813 123 801 114 q 839 142 825 132 l 879 168 l 938 40 m 510 178 q 282 468 394 313 q 214 383 239 426 q 189 273 189 339 q 235 160 189 207 q 363 114 282 114 q 510 178 443 114 m 343 635 q 451 821 451 733 q 427 888 451 865 q 362 911 403 911 q 299 880 321 911 q 276 810 276 849 q 343 635 276 743 z "},"'":{"ha":253,"x_min":50,"x_max":203,"o":"m 50 943 l 179 957 l 203 915 l 163 635 l 86 635 l 50 943 z "},"(":{"ha":383,"x_min":71,"x_max":339,"o":"m 213 -204 q 86 206 125 -28 q 71 407 71 299 q 86 612 71 515 q 124 788 101 708 q 222 1031 163 924 l 339 1031 q 215 601 249 850 q 203 403 203 508 q 217 202 203 297 q 253 28 232 107 q 339 -225 282 -85 l 222 -225 l 213 -204 z "},")":{"ha":383,"x_min":44,"x_max":313,"o":"m 161 1031 q 313 403 313 747 q 261 35 313 222 q 171 -204 229 -79 l 161 -225 l 44 -225 q 126 11 101 -85 q 181 404 181 219 q 44 1031 181 758 l 161 1031 z "},"*":{"ha":503,"x_min":49,"x_max":454,"o":"m 272 829 l 399 944 l 454 885 l 446 853 l 289 794 l 454 742 l 432 664 l 399 656 l 271 760 l 303 592 l 225 575 l 203 599 l 231 760 l 104 644 l 49 704 l 57 736 l 214 794 l 49 847 l 71 925 l 104 933 l 232 829 l 200 997 l 278 1014 l 300 990 l 272 829 m 240 775 l 264 775 l 274 794 l 263 814 l 238 814 l 228 793 l 240 775 z "},"+":{"ha":557,"x_min":47,"x_max":507,"o":"m 333 719 l 333 542 l 507 542 l 507 438 l 333 438 l 333 229 l 247 229 l 229 246 l 229 438 l 47 438 l 47 522 l 65 542 l 229 542 l 229 719 l 333 719 z "},",":{"ha":297,"x_min":31,"x_max":225,"o":"m 210 185 q 225 78 225 124 q 213 -10 225 33 q 183 -89 201 -53 q 103 -204 150 -157 l 31 -162 l 31 -143 l 100 -1 l 64 158 l 210 185 z "},"-":{"ha":554,"x_min":81,"x_max":474,"o":"m 81 424 l 97 443 l 465 443 q 474 432 474 443 l 474 339 l 81 339 l 81 424 z "},".":{"ha":289,"x_min":63,"x_max":228,"o":"m 144 -6 q 127 -6 144 -6 q 86 18 110 -6 q 63 76 63 42 q 86 135 63 111 q 144 158 110 158 q 203 134 178 158 q 228 76 228 110 q 203 19 228 43 q 144 -6 179 -6 z "},"/":{"ha":640,"x_min":31,"x_max":611,"o":"m 611 958 l 610 939 l 154 0 l 35 0 l 31 18 l 486 958 l 611 958 z "},":":{"ha":326,"x_min":81,"x_max":246,"o":"m 163 517 q 145 517 163 517 q 104 541 128 517 q 81 599 81 565 q 105 658 81 633 q 163 682 129 682 q 222 657 197 682 q 246 598 246 632 q 222 540 246 564 q 163 517 197 517 m 163 189 q 146 189 163 189 q 105 213 129 189 q 81 271 81 236 q 105 329 81 306 q 163 353 129 353 q 222 328 197 353 q 246 271 246 304 q 222 213 246 238 q 163 189 197 189 z "},";":{"ha":339,"x_min":61,"x_max":256,"o":"m 161 378 q 144 378 161 378 q 103 402 126 378 q 79 460 79 426 q 103 519 79 494 q 162 543 128 543 q 220 518 196 543 q 244 459 244 493 q 220 401 244 425 q 161 378 196 378 m 240 185 q 256 78 256 124 q 244 -10 256 33 q 214 -89 232 -53 q 133 -204 181 -157 l 61 -162 l 61 -143 l 131 -1 l 94 158 l 240 185 z "},"<":{"ha":588,"x_min":40,"x_max":494,"o":"m 174 471 l 494 279 l 494 144 l 40 425 l 40 519 l 494 794 l 494 664 l 174 471 z "},"=":{"ha":626,"x_min":85,"x_max":542,"o":"m 542 428 l 542 322 l 85 322 l 85 428 l 542 428 m 542 603 l 542 497 l 85 497 l 85 603 l 542 603 z "},">":{"ha":588,"x_min":93,"x_max":547,"o":"m 547 519 l 547 425 l 93 144 l 93 279 l 414 471 l 93 664 l 93 794 l 547 519 z "},"?":{"ha":567,"x_min":54,"x_max":526,"o":"m 212 -6 q 195 -6 212 -6 q 154 19 178 -6 q 131 77 131 43 q 154 135 131 111 q 212 158 178 158 q 271 134 246 158 q 296 76 296 110 q 271 19 296 43 q 212 -6 246 -6 m 264 329 l 154 328 l 151 342 q 146 402 146 361 q 163 474 146 443 q 207 528 181 504 q 264 572 233 551 q 321 617 294 593 q 382 739 382 669 q 352 812 382 781 q 264 843 322 843 q 176 831 204 843 l 139 697 l 54 697 l 78 918 q 269 960 196 960 q 390 942 343 960 q 467 896 436 925 q 526 750 526 839 q 439 551 526 632 q 386 508 413 528 l 335 472 q 265 358 271 426 q 264 329 264 342 z "},"@":{"ha":1154,"x_min":43,"x_max":1107,"o":"m 608 -65 q 771 -39 706 -65 l 796 -44 l 757 -164 q 580 -185 689 -185 q 372 -147 471 -185 q 200 -36 272 -108 q 43 375 43 117 q 88 599 43 500 q 208 767 133 697 q 593 907 364 907 q 958 767 814 907 q 1067 611 1028 701 q 1107 434 1107 521 q 1088 284 1107 347 q 1035 172 1069 221 q 839 67 958 67 q 721 110 758 67 q 571 67 654 67 q 385 136 458 67 q 303 353 303 214 q 406 589 303 510 q 590 649 485 649 q 728 618 664 649 l 778 638 l 815 625 l 815 228 q 826 190 815 199 q 856 182 838 182 q 896 199 874 182 q 936 247 918 215 q 976 407 976 317 q 950 566 976 497 q 875 683 924 635 q 594 789 769 789 q 294 672 414 789 q 175 372 175 556 q 300 43 175 160 q 608 -65 414 -65 m 606 169 q 686 201 647 169 q 685 228 685 215 l 685 526 q 604 547 643 547 q 536 536 565 547 q 485 503 507 525 q 436 358 436 451 q 486 211 436 263 q 606 169 526 169 z "},"A":{"ha":844,"x_min":-1,"x_max":844,"o":"m -1 86 l 71 111 l 351 960 l 485 960 l 781 111 l 844 86 l 829 0 l 503 0 l 503 82 l 625 111 l 558 317 l 261 317 l 197 111 l 317 83 l 317 0 l 17 0 l -1 86 m 297 436 l 519 436 l 406 785 l 297 436 z "},"B":{"ha":801,"x_min":64,"x_max":747,"o":"m 68 97 l 153 117 l 153 847 l 64 856 l 64 960 l 385 960 q 624 889 535 960 q 708 708 708 821 q 664 567 708 629 q 565 492 624 510 q 692 422 640 476 q 747 278 747 364 q 717 139 747 192 q 639 56 688 86 q 414 0 556 0 l 82 0 l 68 97 m 563 694 q 376 840 563 840 l 292 840 l 292 542 l 353 542 q 511 578 460 542 q 563 694 563 615 m 292 119 l 400 119 q 583 197 536 119 q 601 272 601 228 q 584 346 601 317 q 538 392 567 375 q 397 422 483 422 l 292 422 l 292 119 z "},"C":{"ha":808,"x_min":47,"x_max":769,"o":"m 769 57 q 524 -6 682 -6 q 196 117 332 -6 q 47 469 47 251 q 189 836 47 700 q 517 960 318 960 q 722 933 606 960 l 749 681 l 654 681 l 600 831 q 508 840 574 840 q 383 811 443 840 q 281 733 322 782 q 193 483 193 631 q 289 219 193 324 q 547 114 386 114 q 657 132 607 114 q 729 167 707 150 l 769 57 z "},"D":{"ha":879,"x_min":68,"x_max":829,"o":"m 301 118 q 683 488 683 118 q 583 750 683 654 q 324 842 486 842 l 290 840 l 290 119 l 301 118 m 153 118 l 153 849 l 69 857 l 69 960 l 332 960 q 692 839 558 960 q 829 486 829 715 q 697 128 829 257 q 338 0 567 0 l 82 0 l 68 99 l 153 118 z "},"E":{"ha":749,"x_min":67,"x_max":697,"o":"m 68 960 l 660 960 l 688 699 l 600 699 l 547 840 l 289 840 l 289 549 l 508 549 l 508 429 l 289 429 l 289 119 l 561 119 l 610 260 l 697 260 l 669 0 l 81 0 l 67 99 l 151 117 l 151 849 l 68 856 l 68 960 z "},"F":{"ha":710,"x_min":67,"x_max":689,"o":"m 81 0 l 67 99 l 151 117 l 151 849 l 68 856 l 68 960 l 660 960 l 689 699 l 603 699 l 547 840 l 289 840 l 289 549 l 508 549 l 508 429 l 289 429 l 289 122 l 514 90 l 506 0 l 81 0 z "},"G":{"ha":854,"x_min":46,"x_max":776,"o":"m 638 119 l 639 324 l 481 343 l 506 442 l 776 442 l 776 19 q 558 -6 676 -6 q 349 26 440 -6 q 190 119 258 58 q 46 468 46 249 q 181 825 46 690 q 529 960 315 960 q 746 931 633 960 l 767 679 l 665 679 l 615 833 q 513 840 574 840 q 390 813 451 840 q 286 736 329 785 q 192 472 192 629 q 292 213 192 310 q 563 114 393 114 q 638 119 610 114 z "},"H":{"ha":933,"x_min":68,"x_max":865,"o":"m 151 847 l 68 854 l 68 960 l 360 960 l 374 856 l 290 842 l 290 554 l 643 554 l 643 847 l 564 854 l 564 960 l 851 960 l 865 856 l 782 842 l 782 113 l 865 101 l 865 0 l 578 0 l 564 100 l 643 115 l 643 435 l 290 435 l 290 113 l 375 101 l 375 0 l 82 0 l 68 100 l 151 115 l 151 847 z "},"I":{"ha":443,"x_min":64,"x_max":381,"o":"m 151 847 l 64 854 l 64 960 l 367 960 l 381 856 l 290 842 l 290 113 l 381 101 l 381 0 l 76 0 l 64 100 l 151 115 l 151 847 z "},"J":{"ha":510,"x_min":11,"x_max":463,"o":"m 85 175 q 186 118 146 118 q 238 194 238 118 l 238 842 l 131 856 l 144 960 l 463 960 l 463 854 l 376 847 l 376 207 q 303 29 376 83 q 193 -6 256 -6 q 11 65 85 -6 l 85 175 z "},"K":{"ha":851,"x_min":64,"x_max":826,"o":"m 826 99 l 826 0 l 633 0 l 414 413 l 290 264 l 290 113 l 375 101 l 375 0 l 76 0 l 64 100 l 151 115 l 151 847 l 64 853 l 64 960 l 361 960 l 374 857 l 290 842 l 290 450 l 614 844 l 515 860 l 515 960 l 822 960 l 822 858 l 776 849 l 510 528 l 750 113 l 826 99 z "},"L":{"ha":710,"x_min":67,"x_max":697,"o":"m 68 960 l 367 960 l 379 857 l 289 842 l 289 119 l 561 119 l 610 260 l 697 260 l 669 0 l 81 0 l 67 99 l 151 114 l 151 849 l 68 856 l 68 960 z "},"M":{"ha":1186,"x_min":63,"x_max":1114,"o":"m 1038 113 l 1114 97 l 1108 0 l 839 0 l 828 100 l 908 118 l 908 832 l 663 21 l 503 21 l 265 839 l 265 114 l 347 99 l 347 0 l 79 0 l 63 99 l 150 117 l 150 846 l 81 853 l 81 960 l 367 960 l 592 182 l 825 960 l 1096 960 l 1110 853 l 1038 842 l 1038 113 z "},"N":{"ha":967,"x_min":65,"x_max":915,"o":"m 269 224 l 271 125 q 272 113 271 117 l 351 99 l 351 0 l 82 0 l 65 99 l 153 117 l 153 846 l 69 854 l 69 960 l 360 960 l 710 133 l 710 846 l 624 857 l 624 960 l 897 960 l 915 856 l 826 839 l 826 0 l 621 0 l 269 828 l 269 224 z "},"O":{"ha":904,"x_min":60,"x_max":846,"o":"m 206 475 q 267 224 206 325 q 451 114 332 114 q 639 224 572 114 q 700 475 700 324 q 639 731 700 628 q 451 842 571 842 q 267 731 332 842 q 206 475 206 628 m 451 -6 q 157 139 263 -6 q 60 478 60 272 q 157 817 60 683 q 451 961 263 961 q 747 817 640 961 q 846 478 846 682 q 747 139 846 274 q 451 -6 640 -6 z "},"P":{"ha":768,"x_min":64,"x_max":739,"o":"m 292 121 q 493 93 326 114 l 489 0 l 78 0 l 64 97 l 153 117 l 153 847 l 65 854 l 65 960 l 358 960 q 650 872 551 960 q 739 653 739 792 q 629 410 739 490 q 356 339 532 339 l 292 339 l 292 121 m 593 654 q 340 840 593 840 l 292 840 l 292 458 l 350 458 q 539 517 478 458 q 593 654 593 568 z "},"Q":{"ha":904,"x_min":60,"x_max":846,"o":"m 206 475 q 267 224 206 325 q 451 114 332 114 q 639 224 572 114 q 700 475 700 324 q 639 731 700 628 q 451 842 571 842 q 267 731 332 842 q 206 475 206 628 m 451 -6 q 157 139 263 -6 q 60 478 60 272 q 157 817 60 683 q 451 961 263 961 q 747 817 640 961 q 846 478 846 682 q 747 139 846 274 q 451 -6 640 -6 m 706 -135 l 714 -181 l 590 -290 q 474 -191 531 -242 q 360 -89 418 -140 l 414 -31 l 706 -135 z "},"R":{"ha":811,"x_min":64,"x_max":772,"o":"m 153 117 l 153 847 l 65 854 l 65 960 l 358 960 q 650 872 551 960 q 739 653 739 792 q 690 490 739 557 q 558 389 642 424 l 693 113 l 772 96 l 772 0 l 579 0 l 424 356 q 356 351 390 351 l 292 351 l 292 115 l 401 96 l 401 0 l 78 0 l 64 97 l 153 117 m 593 654 q 340 840 593 840 l 292 840 l 292 471 l 350 471 q 539 531 474 471 q 593 654 593 578 z "},"S":{"ha":704,"x_min":65,"x_max":647,"o":"m 72 47 l 82 282 l 179 282 l 204 133 q 324 111 264 111 q 488 189 443 111 q 503 258 503 215 q 477 334 503 300 q 392 397 451 368 q 276 450 333 426 q 172 506 218 474 q 95 587 125 539 q 65 702 65 635 q 90 815 65 769 q 156 893 114 861 q 369 960 243 960 q 604 918 492 960 l 624 679 l 528 679 l 467 829 q 362 843 425 843 q 255 814 299 843 q 211 725 211 785 q 281 611 211 656 q 349 574 311 590 q 435 536 386 558 q 528 483 485 514 q 597 419 571 453 q 647 276 647 357 q 620 144 647 196 q 547 58 593 92 q 319 -6 461 -6 q 72 47 178 -6 z "},"T":{"ha":806,"x_min":19,"x_max":788,"o":"m 174 92 l 332 119 l 332 840 l 161 840 l 104 703 l 19 703 l 49 960 l 757 960 l 788 703 l 703 703 l 644 840 l 471 840 l 471 119 l 632 92 l 619 0 l 192 0 l 174 92 z "},"U":{"ha":899,"x_min":42,"x_max":851,"o":"m 571 960 l 851 960 l 851 857 l 772 843 l 772 319 q 675 72 772 158 q 460 -6 590 -6 q 214 80 300 -6 q 128 319 128 165 l 128 847 l 42 856 l 42 960 l 363 960 l 363 857 l 267 844 l 267 324 q 315 169 267 225 q 464 114 364 114 q 639 225 593 114 q 656 325 656 265 l 656 846 l 571 858 l 571 960 z "},"V":{"ha":804,"x_min":10,"x_max":799,"o":"m 799 865 l 746 847 l 465 0 l 338 0 l 60 847 l 10 865 l 10 960 l 324 960 l 335 874 l 208 847 l 413 217 l 619 850 l 494 874 l 494 960 l 799 960 l 799 865 z "},"W":{"ha":1242,"x_min":21,"x_max":1235,"o":"m 332 874 l 231 851 l 357 157 l 564 935 l 703 935 l 911 151 l 1042 854 l 928 875 l 936 960 l 1235 960 l 1235 865 l 1153 839 l 989 0 l 806 0 l 619 710 l 432 0 l 247 0 l 90 843 l 21 864 l 21 960 l 319 960 l 332 874 z "},"X":{"ha":797,"x_min":28,"x_max":768,"o":"m 28 86 l 89 96 l 315 465 l 86 846 l 28 863 l 28 960 l 338 960 l 349 875 l 250 854 l 413 589 l 568 853 l 486 872 l 486 960 l 768 960 l 768 858 l 708 849 l 482 476 l 707 108 l 768 92 l 768 0 l 454 0 l 454 86 l 542 93 l 385 353 l 232 92 l 310 82 l 310 0 l 28 0 l 28 86 z "},"Y":{"ha":782,"x_min":6,"x_max":772,"o":"m 772 856 l 713 842 l 463 342 l 463 115 l 624 88 l 610 0 l 179 0 l 165 88 l 325 115 l 325 350 l 61 843 l 6 856 l 6 960 l 301 960 l 311 868 l 222 851 l 411 504 l 581 853 l 501 868 l 501 960 l 772 960 l 772 856 z "},"Z":{"ha":768,"x_min":51,"x_max":704,"o":"m 700 831 q 597 672 656 763 q 476 485 539 582 q 349 294 413 389 q 235 119 286 199 l 589 119 l 615 267 l 704 267 l 704 0 l 74 0 l 51 107 l 544 840 l 185 840 l 157 692 l 69 692 l 69 960 l 683 960 l 700 831 z "},"[":{"ha":446,"x_min":108,"x_max":450,"o":"m 442 975 q 450 965 450 975 l 450 872 l 240 872 l 240 -146 l 450 -146 l 450 -237 q 442 -249 450 -249 l 124 -249 l 108 -229 l 108 958 l 119 975 l 442 975 z "},"\\":{"ha":639,"x_min":29,"x_max":610,"o":"m 29 960 l 153 960 l 610 18 l 599 0 l 486 0 l 29 943 l 29 960 z "},"]":{"ha":446,"x_min":-4,"x_max":338,"o":"m 338 -229 l 322 -249 l 4 -249 q -4 -237 -4 -249 l -4 -146 l 206 -146 l 206 872 l -4 872 l -4 965 q 4 975 -4 975 l 326 975 l 338 958 l 338 -229 z "},"^":{"ha":615,"x_min":72,"x_max":543,"o":"m 326 1006 l 543 779 l 540 772 l 428 772 l 307 854 l 188 772 l 76 772 l 72 781 l 290 1006 l 326 1006 z "},"_":{"ha":782,"x_min":7,"x_max":775,"o":"m 7 -18 l 26 0 l 767 0 q 775 -10 775 0 l 775 -104 l 7 -104 l 7 -18 z "},"`":{"ha":419,"x_min":72,"x_max":347,"o":"m 72 878 l 156 976 l 199 965 l 347 746 l 296 694 l 72 878 z "},"a":{"ha":639,"x_min":50,"x_max":611,"o":"m 415 57 q 260 -7 354 -7 q 108 46 165 -7 q 50 172 50 99 q 80 289 50 246 q 158 357 110 332 q 407 403 243 400 l 407 501 q 381 552 407 529 q 301 575 356 575 q 225 553 250 575 l 197 463 l 51 506 q 208 661 83 621 q 308 675 253 675 q 474 621 417 675 q 532 479 532 567 l 532 124 q 551 94 532 94 q 581 104 561 94 l 611 31 q 515 -6 568 -6 q 415 57 436 -6 m 218 113 q 226 108 218 113 q 250 99 233 103 q 288 96 267 96 q 330 105 308 96 q 367 126 351 114 q 407 182 396 149 l 407 301 q 272 287 315 301 q 206 249 229 272 q 182 192 182 226 q 192 141 182 158 q 218 113 203 124 z "},"b":{"ha":681,"x_min":3,"x_max":631,"o":"m 200 26 q 128 -8 133 -7 l 96 11 l 96 911 l 15 906 l 3 989 l 179 1015 l 221 971 l 221 638 q 349 675 279 675 q 468 651 418 675 q 554 585 518 628 q 631 343 631 493 q 528 64 631 154 q 333 -6 449 -6 q 200 26 257 -6 m 333 569 q 269 556 300 569 q 221 524 238 543 l 221 135 q 263 110 232 121 q 325 99 294 99 q 385 109 356 99 q 439 147 414 119 q 499 335 499 208 q 447 515 499 454 q 333 569 403 569 z "},"c":{"ha":600,"x_min":50,"x_max":578,"o":"m 550 58 q 347 -6 467 -6 q 142 75 222 -6 q 50 324 50 164 q 147 600 50 506 q 349 675 225 675 q 506 628 439 675 q 578 549 560 590 l 440 483 l 396 564 q 350 571 368 571 q 182 326 182 571 q 233 160 182 222 q 367 99 283 99 q 449 113 406 99 q 519 156 492 128 l 550 58 z "},"d":{"ha":697,"x_min":50,"x_max":663,"o":"m 474 40 q 335 -6 408 -6 q 213 18 263 -6 q 126 85 163 42 q 50 326 50 176 q 153 606 50 515 q 347 675 232 675 q 458 653 406 675 l 458 911 l 379 906 l 367 989 l 540 1018 l 583 971 l 583 124 q 603 94 583 94 q 632 104 613 94 l 663 31 q 558 -6 619 -6 q 474 40 497 -6 m 458 144 l 458 536 q 416 560 446 549 q 356 571 386 571 q 296 560 325 571 q 242 522 267 550 q 182 335 182 461 q 233 154 182 215 q 347 100 278 100 q 458 144 417 100 z "},"e":{"ha":617,"x_min":49,"x_max":567,"o":"m 567 492 q 552 408 567 449 q 496 333 538 367 q 188 256 401 258 q 300 111 210 146 q 369 99 332 99 q 433 105 407 99 q 479 119 460 111 q 532 153 517 138 l 563 56 q 511 25 547 40 q 239 15 372 -32 q 72 183 118 58 q 49 330 49 246 q 74 478 49 414 q 140 586 99 543 q 349 675 224 675 q 503 626 440 675 q 567 492 567 575 m 435 481 q 435 500 435 481 q 414 544 435 519 q 353 569 393 569 q 287 557 314 569 q 238 519 260 544 q 181 358 189 463 q 332 374 282 358 q 408 416 382 390 q 435 481 435 442 z "},"f":{"ha":468,"x_min":24,"x_max":526,"o":"m 24 661 l 33 675 l 138 675 l 138 801 q 194 964 138 907 q 328 1014 244 1014 q 506 956 424 1014 q 526 940 522 944 l 428 825 l 339 907 q 319 910 331 910 q 264 818 264 910 l 264 675 l 421 675 q 428 667 428 675 l 428 571 l 264 571 l 264 99 l 422 75 l 422 0 l 75 0 l 58 75 l 138 92 l 138 571 l 43 571 l 24 661 z "},"g":{"ha":678,"x_min":25,"x_max":672,"o":"m 161 215 q 54 419 54 286 q 131 603 54 531 q 310 675 204 675 q 492 614 417 675 l 629 683 l 658 679 l 672 564 l 547 549 q 581 423 581 488 q 558 313 581 358 q 497 236 535 267 q 317 175 424 175 q 256 181 282 175 l 221 126 l 226 103 q 286 94 240 100 q 392 74 332 88 q 494 38 451 60 q 561 -8 536 17 q 603 -124 603 -54 q 578 -240 603 -193 q 513 -319 553 -287 q 313 -382 431 -382 q 110 -329 188 -382 q 25 -175 25 -272 q 140 13 25 -44 q 107 101 107 40 q 161 215 107 161 m 311 571 q 220 528 254 568 q 186 437 186 488 q 197 358 186 386 q 226 314 208 331 q 317 279 261 279 q 411 317 374 279 q 449 425 449 354 q 409 533 449 496 q 317 571 369 571 l 311 571 m 497 -152 q 497 -130 497 -152 q 459 -91 497 -108 q 352 -59 421 -74 q 246 -33 283 -44 q 147 -156 147 -74 q 199 -232 147 -201 q 321 -260 246 -260 q 444 -228 394 -260 q 497 -152 497 -196 z "},"h":{"ha":724,"x_min":25,"x_max":694,"o":"m 242 625 q 406 675 311 675 q 594 569 550 675 q 611 481 611 533 l 611 97 l 694 75 l 694 0 l 418 0 l 401 75 l 486 94 l 486 460 q 457 545 486 522 q 395 568 428 568 q 341 563 363 568 q 300 549 319 557 q 242 513 261 532 l 242 97 l 324 75 l 324 0 l 47 0 l 31 75 l 117 94 l 117 911 l 38 906 l 25 989 l 199 1018 l 242 971 l 242 625 z "},"i":{"ha":372,"x_min":40,"x_max":338,"o":"m 256 97 l 338 75 l 338 0 l 60 0 l 44 75 l 131 94 l 131 567 l 54 561 l 40 644 l 211 675 l 256 631 l 256 97 m 86 925 q 111 986 86 961 q 172 1011 136 1011 q 233 985 208 1011 q 258 924 258 958 q 233 864 258 889 q 172 839 208 839 q 111 864 136 839 q 86 925 86 889 z "},"j":{"ha":338,"x_min":-51,"x_max":244,"o":"m 69 -272 q 118 -187 118 -272 l 118 567 l 44 561 l 32 644 l 200 675 l 243 631 l 243 -172 q 198 -330 243 -282 q 76 -378 153 -378 q -51 -342 6 -378 l 1 -240 q 28 -260 11 -247 q 69 -272 46 -272 m 72 925 q 97 986 72 961 q 158 1011 122 1011 q 219 985 194 1011 q 244 924 244 958 q 219 864 244 889 q 158 839 194 839 q 97 864 121 839 q 72 925 72 889 z "},"k":{"ha":674,"x_min":25,"x_max":647,"o":"m 242 367 l 454 588 l 386 588 l 375 675 l 596 675 l 629 611 l 414 403 l 574 94 l 647 78 l 647 0 l 474 0 l 315 307 l 242 236 l 242 92 l 324 75 l 324 0 l 47 0 l 31 75 l 117 94 l 117 911 l 38 906 l 25 989 l 199 1018 l 242 971 l 242 367 z "},"l":{"ha":361,"x_min":24,"x_max":329,"o":"m 242 97 l 329 75 l 329 0 l 46 0 l 29 75 l 117 94 l 117 911 l 38 906 l 24 989 l 197 1018 l 242 971 l 242 97 z "},"m":{"ha":1107,"x_min":40,"x_max":1078,"o":"m 622 504 l 624 464 l 624 97 l 707 75 l 707 0 l 431 0 l 414 75 l 499 94 l 499 460 q 469 545 499 522 q 397 568 440 568 q 314 550 354 568 q 256 514 274 532 l 256 97 l 336 75 l 336 0 l 60 0 l 43 75 l 131 94 l 131 567 l 54 561 l 40 644 q 82 652 58 647 q 129 661 106 657 q 175 669 153 665 q 211 675 197 672 l 251 624 q 426 675 318 675 q 585 608 533 675 q 788 675 675 675 q 979 569 932 675 q 996 481 996 533 l 996 97 l 1078 75 l 1078 0 l 800 0 l 785 75 l 871 94 l 871 460 q 836 546 871 518 q 763 568 807 568 q 680 551 718 568 q 622 518 642 535 l 622 504 z "},"n":{"ha":736,"x_min":40,"x_max":707,"o":"m 251 624 q 418 675 318 675 q 608 569 563 675 q 624 481 624 533 l 624 99 l 707 75 l 707 0 l 431 0 l 414 75 l 499 94 l 499 460 q 469 545 499 522 q 397 568 440 568 q 314 550 354 568 q 256 514 274 532 l 256 97 l 336 75 l 336 0 l 60 0 l 43 75 l 131 94 l 131 567 l 54 561 l 40 644 q 82 652 58 647 q 129 661 106 657 q 175 669 153 665 q 211 675 197 672 l 251 624 z "},"o":{"ha":688,"x_min":50,"x_max":639,"o":"m 182 326 q 182 270 182 326 q 226 156 182 214 q 343 99 271 99 q 461 155 415 99 q 507 326 507 211 q 463 506 507 442 q 344 571 419 571 q 222 503 265 571 q 182 326 182 438 m 50 340 q 74 483 50 421 q 139 589 97 546 q 344 675 219 675 q 556 583 472 675 q 639 338 639 492 q 550 83 639 176 q 344 -6 468 -6 q 133 89 215 -6 q 50 340 50 182 z "},"p":{"ha":701,"x_min":26,"x_max":651,"o":"m 238 635 q 369 675 300 675 q 489 651 439 675 q 575 585 539 628 q 651 343 651 493 q 549 64 651 154 q 354 -6 469 -6 q 243 15 290 -6 l 243 -276 l 413 -307 l 413 -381 l 49 -381 l 32 -307 l 118 -286 l 118 568 l 39 563 l 26 646 l 200 675 l 238 635 m 243 525 l 243 133 q 285 109 256 119 q 346 99 315 99 q 406 109 376 99 q 461 147 435 119 q 519 335 519 208 q 469 515 519 454 q 356 569 424 569 q 243 525 288 569 z "},"q":{"ha":679,"x_min":50,"x_max":660,"o":"m 458 31 q 333 -6 403 -6 q 213 18 263 -6 q 126 85 163 42 q 50 326 50 176 q 153 606 50 515 q 347 675 232 675 q 472 647 417 675 l 551 676 l 583 650 l 583 -253 l 660 -279 l 660 -381 l 303 -381 l 288 -293 l 458 -260 l 458 31 m 458 144 l 458 536 q 416 560 446 549 q 356 571 386 571 q 296 560 325 571 q 242 522 267 550 q 182 335 182 461 q 233 154 182 215 q 347 100 278 100 q 458 144 417 100 z "},"r":{"ha":563,"x_min":40,"x_max":558,"o":"m 247 610 q 392 674 303 674 q 495 643 453 674 q 558 568 538 613 l 421 499 l 378 565 q 293 525 331 565 q 254 418 254 485 l 254 118 q 278 108 254 113 l 435 75 l 435 0 l 60 0 l 43 75 l 129 94 l 129 563 l 53 563 l 40 644 q 204 674 118 657 l 247 610 z "},"s":{"ha":561,"x_min":33,"x_max":515,"o":"m 286 675 q 368 663 331 675 q 433 631 406 650 q 515 538 486 594 l 374 483 l 342 554 q 282 568 314 568 q 224 549 250 568 q 197 494 197 531 q 232 435 197 458 q 328 388 267 413 q 422 340 389 363 q 472 293 454 318 q 507 191 507 247 q 486 99 507 135 q 432 39 465 63 q 274 -6 367 -6 q 122 38 196 -6 q 33 140 54 79 l 176 194 l 210 114 q 269 100 242 100 q 313 104 296 100 q 343 117 329 108 q 375 178 375 138 q 312 256 375 229 q 203 306 249 283 q 128 353 158 328 q 65 492 65 406 q 133 628 65 576 q 286 675 197 675 z "},"t":{"ha":451,"x_min":6,"x_max":435,"o":"m 406 140 q 435 49 408 131 q 378 13 415 31 q 281 -6 340 -6 q 180 31 221 -6 q 139 149 139 67 l 139 571 l 25 571 l 6 661 l 15 675 l 139 675 l 139 907 l 250 933 l 257 913 l 257 675 l 401 675 q 408 667 408 675 l 408 571 l 257 571 l 257 172 q 270 115 257 128 q 303 101 283 101 q 338 106 324 101 q 364 117 351 110 q 406 140 390 128 z "},"u":{"ha":708,"x_min":17,"x_max":669,"o":"m 485 57 q 329 -6 419 -6 q 125 119 176 -6 q 107 224 107 163 l 107 564 l 31 564 l 17 644 l 189 675 l 232 629 l 232 253 q 308 106 232 122 q 348 100 329 100 q 385 105 367 100 q 422 119 404 110 q 475 174 463 142 l 475 564 l 403 564 l 390 644 l 560 676 l 600 629 l 600 139 q 625 93 600 93 l 650 96 l 669 33 q 579 -6 631 -6 q 485 57 507 -6 z "},"v":{"ha":649,"x_min":0,"x_max":643,"o":"m 385 -7 l 275 -7 l 65 583 l 11 583 l 0 663 l 168 675 l 344 163 l 515 583 l 440 583 l 431 663 l 599 675 l 643 622 l 385 -7 z "},"w":{"ha":978,"x_min":7,"x_max":943,"o":"m 203 -4 l 78 578 l 17 578 l 7 664 l 192 678 l 300 146 l 431 660 l 582 660 l 724 144 l 831 578 l 768 578 l 758 664 l 913 676 l 943 628 l 792 -4 l 628 -4 l 496 492 l 368 -4 l 203 -4 z "},"x":{"ha":644,"x_min":39,"x_max":606,"o":"m 342 431 l 475 675 l 600 675 l 600 588 l 547 588 l 399 335 l 546 90 l 606 90 l 606 0 l 443 0 l 303 235 l 168 0 l 44 0 l 39 88 l 97 88 l 242 336 l 96 583 l 39 583 l 39 675 l 194 675 l 342 431 z "},"y":{"ha":667,"x_min":1,"x_max":658,"o":"m 86 -231 q 168 -278 125 -278 q 244 -194 213 -278 q 263 -150 254 -171 l 293 -68 l 68 578 l 13 578 l 1 664 l 174 675 l 361 113 l 536 578 l 464 578 l 454 663 l 622 675 l 658 628 q 435 20 533 274 q 320 -266 336 -233 q 283 -325 304 -299 q 158 -382 235 -382 q 35 -326 97 -382 l 86 -231 z "},"z":{"ha":588,"x_min":60,"x_max":528,"o":"m 378 569 q 160 572 269 572 l 140 464 l 60 464 l 60 675 l 528 675 l 528 567 l 208 104 l 429 104 l 449 218 l 528 218 l 528 0 l 60 0 l 60 107 l 378 569 z "},"{":{"ha":468,"x_min":10,"x_max":475,"o":"m 161 53 l 164 188 q 68 314 164 283 q 10 324 40 324 l 10 439 q 120 478 76 439 q 164 592 164 517 l 163 644 l 161 707 q 197 906 161 846 q 368 981 242 981 q 437 974 404 981 q 471 967 469 968 q 475 967 472 967 l 433 833 l 335 867 q 292 731 292 843 l 293 592 q 147 379 293 390 q 293 168 293 374 l 292 46 q 311 -87 292 -51 q 335 -110 319 -103 l 433 -76 l 475 -210 q 368 -225 393 -225 q 196 -139 244 -225 q 161 53 161 -78 z "},"|":{"ha":343,"x_min":108,"x_max":235,"o":"m 108 -297 l 108 964 l 235 964 l 235 -297 l 108 -297 z "},"}":{"ha":468,"x_min":-7,"x_max":458,"o":"m -7 967 q 122 981 76 981 q 208 961 168 981 q 271 906 249 942 q 307 707 307 847 l 306 644 l 304 592 q 348 478 304 517 q 458 439 392 439 l 458 324 q 350 289 396 324 q 304 188 304 253 l 307 53 q 272 -139 307 -78 q 100 -225 224 -225 q 43 -219 71 -225 q -7 -210 15 -214 l 35 -76 l 133 -110 q 176 46 176 -90 l 175 168 q 322 383 175 375 q 175 592 175 383 l 176 731 q 133 867 176 843 l 35 833 l -7 967 z "},"~":{"ha":569,"x_min":35,"x_max":543,"o":"m 543 849 q 399 767 469 767 q 319 786 361 767 q 254 815 278 806 q 200 824 231 824 q 148 802 169 824 q 117 756 126 781 l 35 804 l 36 822 q 88 894 60 872 q 199 938 142 938 q 306 906 246 938 l 349 885 q 385 875 368 875 l 461 943 l 543 849 z "},"¡":{"ha":353,"x_min":82,"x_max":274,"o":"m 174 519 q 157 519 174 519 q 117 543 140 519 q 93 601 93 567 q 117 660 93 636 q 174 683 140 683 q 233 659 208 683 q 258 601 258 635 q 233 544 258 568 q 174 519 208 519 m 126 349 l 222 349 l 274 -228 l 244 -281 l 82 -262 l 126 349 z "},"¢":{"ha":607,"x_min":43,"x_max":571,"o":"m 543 58 q 403 0 482 13 l 403 -292 l 278 -292 l 278 0 q 114 99 176 21 q 43 324 43 185 q 114 572 43 482 q 278 668 176 650 l 278 953 l 403 953 l 403 668 q 517 614 468 656 q 571 549 549 588 l 433 483 l 389 564 q 343 571 361 571 q 175 326 175 571 q 226 160 175 222 q 360 99 276 99 q 442 113 399 99 q 513 156 485 128 l 543 58 z "},"£":{"ha":732,"x_min":42,"x_max":694,"o":"m 208 574 l 206 704 q 344 944 206 900 q 428 958 385 958 q 506 950 472 958 q 568 931 540 942 q 646 886 613 911 l 547 760 l 436 854 q 351 799 371 851 q 339 646 339 765 l 339 574 l 533 574 q 543 563 543 574 l 543 469 l 335 469 q 279 189 325 282 q 493 133 356 183 q 535 124 519 124 l 640 194 l 694 47 q 538 -6 646 -6 q 403 16 469 -6 q 306 47 338 38 q 236 57 274 57 q 176 38 199 57 q 146 -4 153 18 l 44 -4 q 43 3 43 -1 q 42 28 42 7 q 56 81 42 50 q 100 138 71 113 q 177 282 156 193 q 204 469 199 371 l 81 469 l 81 561 l 92 574 l 208 574 z "},"¤":{"ha":836,"x_min":71,"x_max":767,"o":"m 164 308 q 111 481 111 385 q 167 657 111 578 l 71 754 l 167 853 l 271 749 q 417 786 338 786 q 564 747 497 786 l 669 853 l 767 754 l 667 656 q 722 481 722 576 q 669 310 722 386 l 767 215 l 669 117 l 568 217 q 417 176 499 176 q 267 215 336 176 l 167 117 l 71 215 l 164 308 m 243 481 q 292 354 243 404 q 417 304 340 304 q 542 354 493 304 q 590 481 590 404 q 542 607 590 557 q 417 657 493 657 q 292 607 340 657 q 243 481 243 557 z "},"¥":{"ha":847,"x_min":35,"x_max":813,"o":"m 358 293 l 358 322 l 193 322 l 193 429 l 349 429 l 90 846 l 35 858 l 35 960 l 322 960 l 332 872 l 247 854 l 440 549 l 631 856 l 549 871 l 549 960 l 813 960 l 813 858 l 760 844 l 499 429 l 650 429 l 650 322 l 497 322 l 497 293 l 650 293 l 650 186 l 497 186 l 497 115 l 656 88 l 644 0 l 217 0 l 204 88 l 358 115 l 358 186 l 193 186 l 193 293 l 358 293 z "},"¦":{"ha":358,"x_min":113,"x_max":246,"o":"m 246 269 l 246 -258 l 113 -258 l 113 269 l 246 269 m 246 958 l 246 431 l 113 431 l 113 958 l 246 958 z "},"§":{"ha":699,"x_min":67,"x_max":638,"o":"m 151 564 q 72 726 72 631 q 153 892 72 826 q 360 960 236 960 q 601 918 479 960 l 619 679 l 524 679 l 464 836 q 362 850 425 850 q 258 819 299 850 q 217 749 217 789 q 238 683 217 708 q 292 638 260 658 q 363 603 325 618 q 447 565 401 588 q 531 516 492 543 q 593 461 569 489 q 638 327 638 407 q 563 172 638 247 q 626 24 626 111 q 531 -165 626 -97 q 313 -224 446 -224 q 180 -209 236 -224 q 67 -172 124 -194 l 78 63 l 172 63 l 192 -94 q 304 -114 258 -114 q 379 -108 350 -114 q 431 -86 408 -101 q 482 -3 482 -54 q 452 76 482 47 q 376 130 422 106 q 278 177 331 154 q 181 231 226 200 q 75 397 75 299 q 151 564 75 494 m 460 246 q 492 321 492 289 q 470 377 492 353 q 415 422 449 401 q 338 460 381 442 q 254 500 296 479 q 219 422 219 465 q 261 350 219 379 q 350 300 303 321 q 460 246 429 263 z "},"¨":{"ha":536,"x_min":72,"x_max":464,"o":"m 300 846 q 324 903 300 878 q 383 928 349 928 q 440 903 417 928 q 464 845 464 878 q 440 788 464 813 q 383 764 415 764 q 325 789 350 764 q 300 846 300 814 m 152 764 q 136 764 152 764 q 96 788 119 764 q 72 845 72 813 q 95 903 72 878 q 152 928 118 928 q 210 903 186 928 q 235 844 235 878 q 210 788 235 811 q 152 764 185 764 z "},"©":{"ha":994,"x_min":44,"x_max":950,"o":"m 361 521 q 361 484 361 521 q 403 403 361 447 q 506 360 444 360 q 618 390 568 360 l 654 300 q 524 257 588 257 q 413 275 460 257 q 331 325 365 293 q 254 510 254 396 q 331 707 254 633 q 515 778 403 778 q 579 775 554 778 l 615 768 l 628 600 l 563 600 l 543 671 q 518 672 543 671 q 404 633 447 672 q 361 521 361 594 m 167 519 q 192 390 167 450 q 264 286 218 331 q 497 189 360 189 q 731 285 635 189 q 828 519 828 382 q 731 753 828 657 q 497 850 635 850 q 263 753 360 850 q 167 519 167 657 m 176 199 q 146 229 176 199 q 80 342 115 260 q 44 519 44 425 q 80 695 44 613 q 176 840 115 778 q 320 937 238 901 q 497 972 403 972 q 673 937 590 972 q 817 840 756 901 q 915 695 879 778 q 950 519 950 613 q 915 342 950 425 q 817 199 879 260 q 673 102 756 138 q 497 67 590 67 q 320 102 403 67 q 176 199 238 138 z "},"ª":{"ha":475,"x_min":53,"x_max":432,"o":"m 286 615 q 189 579 250 579 q 90 613 128 579 q 53 692 53 646 q 72 764 53 738 q 121 804 90 790 q 269 828 172 828 l 269 840 q 253 882 269 872 q 222 892 238 892 q 181 888 201 892 l 175 854 l 54 878 q 117 961 67 931 q 219 986 160 986 q 312 967 278 986 q 361 917 346 949 q 379 842 376 885 q 382 748 382 799 q 384 685 382 697 q 393 672 386 672 l 411 676 l 432 613 q 349 582 392 582 q 286 615 307 582 m 269 758 q 164 704 164 758 q 173 677 164 690 q 207 664 182 664 q 269 699 254 664 l 269 758 z "},"«":{"ha":640,"x_min":8,"x_max":586,"o":"m 8 471 l 304 768 l 379 693 l 156 469 l 379 244 l 304 171 l 8 471 m 244 471 l 511 739 l 586 664 l 392 469 l 586 274 l 511 200 l 244 471 z "},"¬":{"ha":817,"x_min":68,"x_max":728,"o":"m 68 528 l 68 617 l 83 632 l 713 632 l 728 617 l 728 336 q 717 326 728 326 l 619 326 l 619 528 l 68 528 z "},"­":{"ha":560,"x_min":-39,"x_max":597,"o":"m -39 433 l -39 553 l 597 553 l 597 433 l -39 433 z "},"®":{"ha":994,"x_min":44,"x_max":950,"o":"m 176 199 q 146 229 176 199 q 80 342 115 260 q 44 519 44 425 q 80 695 44 613 q 176 840 115 778 q 320 937 238 901 q 497 972 403 972 q 673 937 590 972 q 817 840 756 901 q 915 695 879 778 q 950 519 950 613 q 915 342 950 425 q 817 199 879 260 q 673 102 756 138 q 497 67 590 67 q 320 102 403 67 q 176 199 238 138 m 167 519 q 192 390 167 450 q 264 286 218 331 q 497 189 360 189 q 731 285 635 189 q 828 519 828 382 q 731 753 828 657 q 497 850 635 850 q 263 753 360 850 q 167 519 167 657 m 688 606 q 597 463 688 506 l 661 346 l 704 338 l 704 268 l 582 268 l 503 439 q 474 436 488 436 l 446 436 l 446 347 l 510 332 l 510 268 l 324 268 l 318 335 l 350 346 l 350 689 l 317 696 l 317 776 l 456 776 q 633 726 574 776 q 688 606 688 682 m 465 526 q 586 605 586 526 q 471 683 586 683 l 446 683 l 446 526 l 465 526 z "},"¯":{"ha":614,"x_min":79,"x_max":535,"o":"m 79 853 l 79 958 l 535 958 l 535 853 l 79 853 z "},"°":{"ha":424,"x_min":46,"x_max":378,"o":"m 156 828 q 183 747 156 772 q 210 738 193 738 q 238 747 228 738 q 256 769 249 756 q 268 828 268 794 q 239 906 268 881 q 210 915 228 915 q 183 906 193 915 q 167 883 172 897 q 156 828 156 860 m 88 695 q 67 721 88 695 q 46 828 46 747 q 89 960 46 908 q 211 1013 133 1013 q 333 960 288 1013 q 378 827 378 907 q 334 695 378 747 q 210 643 290 643 q 88 695 131 643 z "},"±":{"ha":632,"x_min":88,"x_max":544,"o":"m 263 676 l 263 839 l 368 839 l 368 676 l 544 676 l 544 571 l 368 571 l 368 392 l 263 392 l 263 571 l 88 571 l 88 676 l 263 676 m 544 340 l 544 235 l 88 235 l 88 340 l 544 340 z "},"²":{"ha":417,"x_min":49,"x_max":358,"o":"m 239 853 q 193 899 239 899 q 164 893 178 899 l 143 843 l 49 872 q 114 958 68 931 q 198 985 160 985 q 260 977 236 985 q 304 954 285 969 q 349 871 349 919 q 332 790 349 822 q 292 734 315 758 q 245 692 269 710 q 207 661 221 674 l 279 661 l 300 708 l 358 708 l 343 581 l 78 581 l 64 640 l 113 683 q 220 799 201 765 q 239 853 239 832 z "},"³":{"ha":410,"x_min":49,"x_max":358,"o":"m 344 878 q 276 790 344 806 q 333 763 307 783 q 358 703 358 742 q 344 642 358 665 q 308 604 331 619 q 204 575 264 575 q 49 633 107 575 l 92 707 q 138 673 115 688 q 190 658 160 658 q 235 673 221 658 q 250 711 250 688 q 151 751 250 751 l 151 818 q 236 867 236 818 q 226 889 236 878 q 203 900 217 900 q 164 893 167 900 l 144 851 l 53 882 q 211 985 93 985 q 289 964 260 985 q 344 878 344 924 z "},"´":{"ha":435,"x_min":72,"x_max":363,"o":"m 233 972 l 278 983 l 363 871 l 129 701 l 72 763 l 233 972 z "},"µ":{"ha":744,"x_min":38,"x_max":690,"o":"m 254 204 q 372 100 267 100 q 469 138 421 100 q 493 167 485 150 l 493 563 l 425 563 l 411 644 l 581 676 l 621 629 l 621 139 q 627 101 621 110 q 647 93 633 93 l 671 96 l 690 33 q 590 -6 651 -6 q 504 54 529 -6 q 356 -6 444 -6 q 249 14 296 -6 l 253 -7 l 253 -381 l 125 -381 l 125 564 l 50 564 l 38 644 l 210 675 l 253 631 l 253 578 l 254 419 l 254 204 z "},"¶":{"ha":811,"x_min":39,"x_max":733,"o":"m 486 185 l 485 139 q 358 -18 485 83 l 267 107 l 361 167 l 361 415 q 124 497 208 422 q 39 694 39 572 q 103 869 39 799 q 343 960 186 960 l 733 960 l 733 849 l 667 849 l 667 0 l 549 0 l 549 849 l 486 849 l 486 185 z "},"·":{"ha":329,"x_min":82,"x_max":249,"o":"m 249 533 l 247 332 l 82 332 l 82 554 l 231 554 l 249 533 z "},"¸":{"ha":564,"x_min":100,"x_max":478,"o":"m 196 -114 l 244 21 l 382 21 l 350 -60 q 440 -110 401 -74 q 478 -217 478 -147 q 422 -335 478 -287 q 267 -383 365 -383 q 100 -346 167 -383 l 160 -226 l 258 -292 q 338 -254 311 -292 q 347 -215 347 -240 q 322 -165 347 -189 q 238 -142 297 -142 l 219 -140 l 196 -114 z "},"¹":{"ha":329,"x_min":47,"x_max":276,"o":"m 121 646 l 121 894 l 60 883 l 47 949 l 211 996 l 226 974 l 226 650 l 276 639 l 276 581 l 72 581 l 68 636 l 121 646 z "},"º":{"ha":464,"x_min":47,"x_max":417,"o":"m 233 883 q 214 883 233 883 q 177 853 196 883 q 158 778 158 822 q 177 706 158 733 q 232 678 196 678 q 288 705 268 678 q 307 778 307 732 q 288 853 307 824 q 233 883 269 883 m 61 690 q 47 781 47 729 q 62 872 47 833 q 101 936 76 911 q 232 988 151 988 q 364 936 314 988 q 417 782 417 881 q 306 589 417 632 q 232 575 271 575 q 61 690 106 575 z "},"»":{"ha":642,"x_min":56,"x_max":635,"o":"m 486 468 l 263 693 l 339 768 l 635 468 l 339 171 l 264 244 l 486 468 m 249 469 l 56 664 l 131 739 l 397 468 l 131 200 l 56 274 l 249 469 z "},"¼":{"ha":911,"x_min":43,"x_max":868,"o":"m 803 150 l 803 76 l 861 68 l 861 0 l 575 0 l 569 61 l 686 78 l 686 150 l 465 150 l 465 251 l 681 536 l 803 536 l 803 242 l 868 242 l 868 150 l 803 150 m 718 960 l 717 940 l 254 -15 l 135 0 l 131 3 l 594 960 l 718 960 m 243 515 q 293 503 243 503 l 293 438 l 64 438 l 64 500 l 126 510 l 126 864 l 54 853 l 43 924 l 228 976 l 244 965 l 244 888 q 243 871 244 879 l 243 515 m 686 242 l 686 403 l 561 242 l 686 242 z "},"½":{"ha":974,"x_min":46,"x_max":933,"o":"m 721 960 l 719 940 l 257 -15 l 138 0 l 133 3 l 597 960 l 721 960 m 549 68 q 612 131 574 94 q 686 211 650 168 q 772 390 772 317 q 753 433 772 422 q 717 444 733 444 q 678 436 699 444 l 644 357 l 526 413 q 601 507 557 475 q 704 539 646 539 q 796 526 763 539 q 850 492 829 514 q 893 381 893 449 q 789 169 893 285 q 732 106 760 136 l 718 90 l 842 90 l 871 168 l 933 168 l 915 0 l 567 0 l 549 68 m 246 515 q 296 503 246 503 l 296 438 l 67 438 l 67 500 l 129 510 l 129 864 l 57 853 l 46 924 l 231 976 l 247 965 l 247 888 q 246 871 247 879 l 246 515 z "},"¾":{"ha":981,"x_min":40,"x_max":935,"o":"m 869 150 l 869 76 l 928 68 l 928 0 l 642 0 l 636 61 l 753 78 l 753 150 l 532 150 l 532 251 l 747 536 l 869 536 l 869 242 l 935 242 l 935 150 l 869 150 m 794 960 l 793 940 l 331 -15 l 211 0 l 207 3 l 669 960 l 794 960 m 306 593 q 189 669 306 669 l 171 669 l 171 750 l 189 750 q 263 760 243 750 q 301 813 301 779 q 276 863 301 847 q 229 879 251 879 q 178 868 206 879 l 146 800 l 40 849 q 167 963 71 931 q 238 974 200 974 q 308 965 276 974 q 364 939 340 956 q 417 831 417 901 q 394 756 417 789 q 332 711 372 724 q 401 668 376 699 q 425 594 425 638 q 360 469 425 514 q 233 429 303 429 q 56 478 121 429 l 131 556 q 221 524 171 524 q 297 561 271 524 q 306 593 306 574 m 753 242 l 753 403 l 628 242 l 753 242 z "},"¿":{"ha":543,"x_min":32,"x_max":496,"o":"m 343 676 q 402 652 378 676 q 426 594 426 628 q 401 536 426 560 q 342 513 376 513 q 284 536 307 513 q 261 594 261 560 q 285 653 261 629 q 343 676 308 676 m 293 343 l 403 344 l 406 331 q 410 271 410 310 q 392 199 410 232 q 349 140 375 165 q 294 94 324 114 q 239 50 264 74 q 178 -67 178 -3 q 236 -161 178 -133 q 283 -171 257 -171 q 375 -158 340 -171 l 411 -26 l 496 -26 l 472 -246 q 380 -274 428 -261 q 271 -286 332 -286 q 94 -229 156 -286 q 32 -85 32 -172 q 71 58 32 1 q 169 159 110 115 q 260 238 228 203 q 293 326 293 274 l 293 343 z "},"À":{"ha":844,"x_min":-1,"x_max":844,"o":"m 503 82 l 625 111 l 558 319 l 261 319 l 197 111 l 317 83 l 317 0 l 17 0 l -1 86 l 71 111 l 351 960 l 485 960 l 781 111 l 844 86 l 829 0 l 503 0 l 503 82 m 263 1171 l 340 1285 l 388 1276 l 582 1061 l 531 1000 l 263 1171 m 297 436 l 519 436 l 406 785 l 297 436 z "},"Á":{"ha":844,"x_min":-1,"x_max":844,"o":"m -1 86 l 71 111 l 351 960 l 485 960 l 781 111 l 844 86 l 829 0 l 503 0 l 503 82 l 625 111 l 558 317 l 261 317 l 197 111 l 317 83 l 317 0 l 17 0 l -1 86 m 461 1289 l 507 1294 l 588 1168 l 317 1013 l 263 1083 l 461 1289 m 297 436 l 519 436 l 406 785 l 297 436 z "},"Â":{"ha":844,"x_min":-1,"x_max":844,"o":"m -1 86 l 71 111 l 351 960 l 485 960 l 781 111 l 844 86 l 829 0 l 503 0 l 503 82 l 625 111 l 558 317 l 261 317 l 197 111 l 317 83 l 317 0 l 17 0 l -1 86 m 440 1242 l 657 1015 l 654 1008 l 542 1008 l 421 1090 l 301 1008 l 190 1008 l 186 1017 l 404 1242 l 440 1242 m 297 436 l 519 436 l 406 785 l 297 436 z "},"Ã":{"ha":844,"x_min":-1,"x_max":844,"o":"m -1 86 l 71 111 l 351 960 l 485 960 l 781 111 l 844 86 l 829 0 l 503 0 l 503 82 l 625 111 l 558 317 l 261 317 l 197 111 l 317 83 l 317 0 l 17 0 l -1 86 m 700 1099 q 561 1014 624 1014 q 504 1024 528 1014 q 459 1047 481 1035 q 415 1070 438 1060 q 356 1081 393 1081 q 297 1057 319 1081 q 264 1010 275 1033 l 186 1057 l 186 1081 q 286 1178 217 1149 q 363 1190 317 1190 q 449 1168 410 1190 q 521 1122 489 1146 l 533 1114 l 618 1192 l 700 1099 m 297 436 l 519 436 l 406 785 l 297 436 z "},"Ä":{"ha":844,"x_min":-1,"x_max":844,"o":"m -1 86 l 71 111 l 351 960 l 485 960 l 781 111 l 844 86 l 829 0 l 503 0 l 503 82 l 625 111 l 558 317 l 261 317 l 197 111 l 317 83 l 317 0 l 17 0 l -1 86 m 297 436 l 519 436 l 406 785 l 297 436 m 547 1124 q 529 1124 547 1124 q 484 1151 511 1124 q 457 1213 457 1178 q 483 1275 457 1249 q 547 1301 510 1301 q 609 1275 583 1301 q 635 1213 635 1249 q 608 1150 635 1176 q 547 1124 582 1124 m 211 1213 q 236 1275 211 1249 q 298 1301 261 1301 q 360 1275 335 1301 q 386 1212 386 1249 q 359 1149 386 1175 q 297 1124 332 1124 q 237 1150 263 1124 q 211 1213 211 1176 z "},"Å":{"ha":839,"x_min":-4,"x_max":842,"o":"m 496 919 l 778 111 l 842 86 l 826 0 l 500 0 l 500 82 l 622 111 l 556 317 l 258 317 l 194 111 l 314 83 l 314 0 l 14 0 l -4 86 l 68 111 l 335 919 q 276 1035 276 960 q 317 1133 276 1093 q 415 1174 357 1174 q 515 1133 474 1174 q 556 1026 556 1092 q 496 919 556 961 m 294 436 l 517 436 l 403 785 l 294 436 m 363 1035 q 377 996 363 1010 q 416 982 392 982 q 455 996 440 982 q 469 1035 469 1010 q 455 1074 469 1060 q 416 1088 440 1088 q 377 1074 392 1088 q 363 1035 363 1060 z "},"Æ":{"ha":1092,"x_min":-17,"x_max":1040,"o":"m -17 86 l 56 111 l 411 960 l 1003 960 l 1031 699 l 943 699 l 890 840 l 632 840 l 632 549 l 851 549 l 851 429 l 632 429 l 632 119 l 904 119 l 953 260 l 1040 260 l 1013 0 l 424 0 l 410 99 l 494 117 l 494 358 l 278 358 l 179 111 l 301 83 l 301 0 l 1 0 l -17 86 m 475 850 l 326 478 l 494 478 l 494 849 l 475 850 z "},"Ç":{"ha":810,"x_min":49,"x_max":771,"o":"m 390 -106 l 429 3 q 164 150 268 32 q 49 469 49 281 q 189 836 49 700 q 518 960 319 960 q 724 933 607 960 l 750 681 l 656 681 l 601 831 q 510 840 575 840 q 385 811 446 840 q 281 733 324 782 q 194 483 194 633 q 290 219 194 324 q 549 114 388 114 q 658 132 608 114 q 731 167 708 150 l 771 57 q 554 -4 694 3 l 535 -54 q 619 -101 583 -67 q 654 -202 654 -136 q 601 -313 654 -268 q 457 -358 549 -358 q 308 -325 389 -358 l 300 -322 l 357 -211 l 449 -271 q 522 -236 497 -271 q 532 -200 532 -224 q 509 -153 532 -176 q 429 -131 486 -131 l 413 -129 l 390 -106 z "},"È":{"ha":749,"x_min":67,"x_max":697,"o":"m 204 1171 l 283 1285 l 331 1276 l 524 1061 l 474 1000 l 204 1171 m 68 960 l 660 960 l 688 699 l 600 699 l 547 840 l 289 840 l 289 549 l 508 549 l 508 429 l 289 429 l 289 119 l 561 119 l 610 260 l 697 260 l 669 0 l 81 0 l 67 99 l 151 117 l 151 849 l 68 856 l 68 960 z "},"É":{"ha":749,"x_min":67,"x_max":697,"o":"m 463 1289 l 510 1294 l 589 1168 l 318 1013 l 263 1083 l 463 1289 m 68 960 l 660 960 l 688 699 l 600 699 l 547 840 l 289 840 l 289 549 l 508 549 l 508 429 l 289 429 l 289 119 l 561 119 l 610 260 l 697 260 l 669 0 l 81 0 l 67 99 l 151 117 l 151 849 l 68 856 l 68 960 z "},"Ê":{"ha":749,"x_min":67,"x_max":697,"o":"m 394 1242 l 611 1015 l 608 1008 l 496 1008 l 375 1090 l 256 1008 l 144 1008 l 140 1017 l 358 1242 l 394 1242 m 68 960 l 660 960 l 688 699 l 600 699 l 547 840 l 289 840 l 289 549 l 508 549 l 508 429 l 289 429 l 289 119 l 561 119 l 610 260 l 697 260 l 669 0 l 81 0 l 67 99 l 151 117 l 151 849 l 68 856 l 68 960 z "},"Ë":{"ha":749,"x_min":67,"x_max":697,"o":"m 68 960 l 660 960 l 688 699 l 600 699 l 547 840 l 289 840 l 289 549 l 508 549 l 508 429 l 289 429 l 289 119 l 561 119 l 610 260 l 697 260 l 669 0 l 81 0 l 67 99 l 151 117 l 151 849 l 68 856 l 68 960 m 510 1139 q 493 1139 510 1139 q 448 1166 475 1139 q 421 1228 421 1193 q 447 1290 421 1264 q 510 1317 474 1317 q 573 1290 547 1317 q 599 1228 599 1264 q 572 1165 599 1192 q 510 1139 546 1139 m 175 1228 q 200 1290 175 1264 q 262 1317 225 1317 q 324 1290 299 1317 q 350 1227 350 1264 q 323 1165 350 1190 q 261 1139 296 1139 q 201 1165 226 1139 q 175 1228 175 1192 z "},"Ì":{"ha":444,"x_min":53,"x_max":382,"o":"m 53 1171 l 132 1285 l 176 1276 l 371 1061 l 321 1000 l 53 1171 m 153 847 l 65 854 l 65 960 l 368 960 l 382 856 l 292 842 l 292 113 l 382 101 l 382 0 l 78 0 l 53 100 l 153 115 l 153 847 z "},"Í":{"ha":443,"x_min":64,"x_max":390,"o":"m 264 1289 l 311 1294 l 390 1168 l 119 1013 l 65 1083 l 264 1289 m 151 847 l 64 854 l 64 960 l 367 960 l 381 856 l 290 842 l 290 113 l 381 101 l 381 0 l 76 0 l 64 100 l 151 115 l 151 847 z "},"Î":{"ha":443,"x_min":-14,"x_max":457,"o":"m 151 847 l 64 854 l 64 960 l 367 960 l 381 856 l 290 842 l 290 113 l 381 101 l 381 0 l 76 0 l 64 100 l 151 115 l 151 847 m 240 1242 l 457 1015 l 454 1008 l 342 1008 l 221 1090 l 101 1008 l -10 1008 l -14 1017 l 204 1242 l 240 1242 z "},"Ï":{"ha":443,"x_min":29,"x_max":425,"o":"m 151 847 l 64 854 l 64 960 l 367 960 l 381 856 l 290 842 l 290 113 l 381 101 l 381 0 l 76 0 l 64 100 l 151 115 l 151 847 m 340 1021 q 322 1021 340 1021 q 278 1046 304 1021 q 251 1108 251 1071 q 278 1170 251 1144 q 340 1196 304 1196 q 401 1169 376 1196 q 425 1108 425 1143 q 400 1047 425 1072 q 340 1021 375 1021 m 29 1108 q 54 1170 29 1144 q 114 1196 79 1196 q 176 1170 149 1196 q 203 1108 203 1144 q 176 1047 203 1072 q 114 1021 149 1021 q 54 1047 79 1021 q 29 1108 29 1072 z "},"Ð":{"ha":878,"x_min":51,"x_max":828,"o":"m 51 526 l 65 542 l 151 542 l 151 849 l 68 857 l 68 960 l 331 960 q 690 839 557 960 q 828 486 828 715 q 696 128 828 257 q 336 0 565 0 l 81 0 l 67 99 l 151 118 l 151 432 l 51 432 l 51 526 m 682 492 q 653 646 682 579 q 572 756 625 713 q 289 843 469 843 l 289 542 l 519 542 q 529 531 529 542 l 529 432 l 289 432 l 289 119 l 322 119 q 593 219 501 119 q 682 492 682 314 z "},"Ñ":{"ha":967,"x_min":65,"x_max":915,"o":"m 269 224 l 271 125 q 272 113 271 117 l 351 99 l 351 0 l 82 0 l 65 99 l 153 117 l 153 846 l 69 854 l 69 960 l 360 960 l 710 133 l 710 846 l 624 857 l 624 960 l 897 960 l 915 856 l 826 839 l 826 0 l 664 0 l 269 829 l 269 224 m 746 1099 q 607 1014 669 1014 q 550 1024 574 1014 q 505 1047 526 1035 q 461 1070 483 1060 q 402 1081 439 1081 q 343 1057 365 1081 q 310 1010 321 1033 l 232 1057 l 232 1081 q 333 1178 263 1149 q 409 1190 363 1190 q 495 1168 456 1190 q 567 1122 535 1146 l 579 1114 l 664 1192 l 746 1099 z "},"Ò":{"ha":904,"x_min":60,"x_max":846,"o":"m 206 475 q 267 224 206 325 q 451 114 332 114 q 639 224 572 114 q 700 475 700 324 q 639 731 700 628 q 451 842 571 842 q 267 731 332 842 q 206 475 206 628 m 451 -6 q 157 139 263 -6 q 60 478 60 272 q 157 817 60 683 q 451 961 263 961 q 747 817 640 961 q 846 478 846 682 q 747 139 846 274 q 451 -6 640 -6 m 290 1171 l 368 1285 l 414 1276 l 608 1061 l 558 1000 l 290 1171 z "},"Ó":{"ha":904,"x_min":60,"x_max":846,"o":"m 206 475 q 267 224 206 325 q 451 114 332 114 q 639 224 572 114 q 700 475 700 324 q 639 731 700 628 q 451 842 571 842 q 267 731 332 842 q 206 475 206 628 m 451 -6 q 157 139 263 -6 q 60 478 60 272 q 157 817 60 683 q 451 961 263 961 q 747 817 640 961 q 846 478 846 682 q 747 139 846 274 q 451 -6 640 -6 m 503 1289 l 550 1294 l 629 1168 l 358 1013 l 304 1083 l 503 1289 z "},"Ô":{"ha":904,"x_min":60,"x_max":846,"o":"m 206 475 q 267 224 206 325 q 451 114 332 114 q 639 224 572 114 q 700 475 700 324 q 639 731 700 628 q 451 842 571 842 q 267 731 332 842 q 206 475 206 628 m 451 -6 q 157 139 263 -6 q 60 478 60 272 q 157 817 60 683 q 451 961 263 961 q 747 817 640 961 q 846 478 846 682 q 747 139 846 274 q 451 -6 640 -6 m 471 1242 l 688 1015 l 686 1008 l 572 1008 l 451 1090 l 332 1008 l 218 1008 l 217 1017 l 435 1242 l 471 1242 z "},"Õ":{"ha":904,"x_min":60,"x_max":846,"o":"m 206 475 q 267 224 206 325 q 451 114 332 114 q 639 224 572 114 q 700 475 700 324 q 639 731 700 628 q 451 842 571 842 q 267 731 332 842 q 206 475 206 628 m 451 -6 q 157 139 263 -6 q 60 478 60 272 q 157 817 60 683 q 451 961 263 961 q 747 817 640 961 q 846 478 846 682 q 747 139 846 274 q 451 -6 640 -6 m 631 1192 l 713 1099 q 613 1022 668 1043 q 567 1014 593 1014 q 517 1024 542 1014 q 472 1047 493 1035 q 429 1070 451 1060 q 371 1081 407 1081 q 276 1010 314 1081 l 201 1057 l 201 1081 q 300 1178 232 1149 q 379 1190 331 1190 q 471 1165 428 1190 q 546 1114 514 1139 l 631 1192 z "},"Ö":{"ha":904,"x_min":60,"x_max":846,"o":"m 206 475 q 267 224 206 325 q 451 114 332 114 q 639 224 572 114 q 700 475 700 324 q 639 731 700 628 q 451 842 571 842 q 267 731 332 842 q 206 475 206 628 m 451 -6 q 157 139 263 -6 q 60 478 60 272 q 157 817 60 683 q 451 961 263 961 q 747 817 640 961 q 846 478 846 682 q 747 139 846 274 q 451 -6 640 -6 m 587 1139 q 569 1139 587 1139 q 524 1166 551 1139 q 497 1228 497 1193 q 524 1290 497 1264 q 587 1317 550 1317 q 649 1290 624 1317 q 675 1228 675 1264 q 649 1165 675 1192 q 587 1139 622 1139 m 251 1228 q 276 1290 251 1264 q 338 1317 301 1317 q 401 1290 375 1317 q 426 1227 426 1264 q 399 1165 426 1190 q 338 1139 372 1139 q 277 1165 303 1139 q 251 1228 251 1192 z "},"×":{"ha":664,"x_min":68,"x_max":594,"o":"m 407 490 l 592 307 l 518 233 l 333 417 l 146 229 l 72 304 l 260 492 l 68 683 l 142 757 l 333 565 l 519 751 l 594 678 l 407 490 z "},"Ø":{"ha":904,"x_min":60,"x_max":846,"o":"m 767 1043 l 765 1017 l 697 869 q 809 699 772 803 q 846 488 846 596 q 821 293 846 381 q 747 139 796 206 q 451 -6 640 -6 q 306 21 368 -6 l 263 -74 l 132 -74 l 128 -49 l 194 96 q 93 263 126 163 q 60 469 60 363 q 84 663 60 575 q 157 817 108 750 q 451 961 263 961 q 583 939 522 961 l 631 1043 l 767 1043 m 635 735 l 358 135 q 457 114 400 114 q 561 144 514 114 q 639 224 608 174 q 700 476 700 324 q 635 735 700 629 m 267 731 q 206 478 206 628 q 258 235 206 328 l 531 826 q 441 842 493 842 q 342 811 389 842 q 267 731 296 781 z "},"Ù":{"ha":886,"x_min":42,"x_max":839,"o":"m 285 1171 l 363 1285 l 410 1276 l 604 1061 l 553 1000 l 285 1171 m 267 324 q 458 114 267 114 q 628 225 586 114 q 643 325 643 265 l 643 846 l 558 858 l 558 960 l 839 960 l 839 857 l 760 843 l 760 319 q 667 72 760 158 q 454 -6 585 -6 q 211 80 294 -6 q 128 319 128 165 l 128 847 l 42 856 l 42 960 l 363 960 l 363 857 l 267 844 l 267 324 z "},"Ú":{"ha":886,"x_min":42,"x_max":839,"o":"m 529 1289 l 576 1294 l 654 1168 l 385 1013 l 329 1083 l 529 1289 m 267 324 q 458 114 267 114 q 628 225 586 114 q 643 325 643 265 l 643 846 l 558 858 l 558 960 l 839 960 l 839 857 l 760 843 l 760 319 q 667 72 760 158 q 454 -6 585 -6 q 211 80 294 -6 q 128 319 128 165 l 128 847 l 42 856 l 42 960 l 363 960 l 363 857 l 267 844 l 267 324 z "},"Û":{"ha":886,"x_min":42,"x_max":839,"o":"m 267 324 q 458 114 267 114 q 628 225 586 114 q 643 325 643 265 l 643 846 l 558 858 l 558 960 l 839 960 l 839 857 l 760 843 l 760 319 q 667 72 760 158 q 454 -6 585 -6 q 211 80 294 -6 q 128 319 128 165 l 128 847 l 42 856 l 42 960 l 363 960 l 363 857 l 267 844 l 267 324 m 475 1242 l 692 1015 l 690 1008 l 576 1008 l 456 1090 l 336 1008 l 222 1008 l 221 1017 l 439 1242 l 475 1242 z "},"Ü":{"ha":899,"x_min":42,"x_max":851,"o":"m 571 960 l 851 960 l 851 857 l 772 843 l 772 319 q 675 72 772 158 q 460 -6 590 -6 q 214 80 300 -6 q 128 319 128 165 l 128 847 l 42 856 l 42 960 l 363 960 l 363 857 l 267 844 l 267 324 q 315 169 267 225 q 464 114 364 114 q 639 225 593 114 q 656 325 656 265 l 656 846 l 571 858 l 571 960 m 603 1139 q 586 1139 603 1139 q 541 1166 568 1139 q 514 1228 514 1193 q 540 1290 514 1264 q 603 1317 567 1317 q 666 1290 640 1317 q 692 1228 692 1264 q 665 1165 692 1192 q 603 1139 639 1139 m 268 1228 q 293 1290 268 1264 q 355 1317 318 1317 q 417 1290 392 1317 q 443 1227 443 1264 q 416 1165 443 1190 q 354 1139 389 1139 q 294 1165 319 1139 q 268 1228 268 1192 z "},"Ý":{"ha":782,"x_min":6,"x_max":772,"o":"m 772 856 l 713 842 l 463 342 l 463 115 l 624 88 l 610 0 l 179 0 l 165 88 l 325 115 l 325 350 l 61 843 l 6 856 l 6 960 l 301 960 l 311 868 l 218 851 l 411 496 l 586 853 l 501 868 l 501 960 l 772 960 l 772 856 m 479 1289 l 526 1294 l 604 1168 l 335 1013 l 279 1083 l 479 1289 z "},"Þ":{"ha":729,"x_min":64,"x_max":701,"o":"m 151 847 l 64 854 l 64 960 l 367 960 l 381 856 l 290 842 l 293 790 q 599 720 497 790 q 701 503 701 650 q 592 278 701 354 q 318 211 494 211 l 290 211 l 290 113 l 450 88 l 450 0 l 76 0 l 64 100 l 151 115 l 151 847 m 290 664 l 290 331 l 313 331 q 501 374 447 331 q 556 492 556 418 q 492 626 556 588 q 301 664 428 664 l 290 664 z "},"ß":{"ha":732,"x_min":44,"x_max":703,"o":"m 363 911 q 243 764 243 911 l 243 0 l 44 0 l 44 81 l 115 94 l 115 738 q 188 950 115 875 q 365 1015 253 1015 q 531 961 463 1015 q 606 803 606 901 q 583 698 606 739 q 532 628 560 657 q 481 576 504 599 q 458 529 458 554 q 521 469 464 499 q 703 226 703 375 q 625 50 703 118 q 460 -11 556 -11 q 304 22 379 -11 l 379 153 q 415 120 397 138 q 449 93 433 103 q 534 129 497 93 q 571 229 571 165 q 510 339 571 289 q 453 378 483 360 q 396 419 422 397 q 335 526 335 468 q 357 594 335 567 q 406 650 379 622 q 456 713 433 678 q 478 803 478 747 q 442 879 475 847 q 363 911 410 911 z "},"à":{"ha":639,"x_min":50,"x_max":611,"o":"m 415 57 q 260 -7 354 -7 q 108 46 165 -7 q 50 172 50 99 q 80 289 50 246 q 158 357 110 332 q 407 403 243 400 l 407 501 q 381 552 407 529 q 301 575 356 575 q 225 553 250 575 l 197 463 l 51 506 q 208 661 83 621 q 308 675 253 675 q 474 621 417 675 q 532 479 532 567 l 532 124 q 551 94 532 94 q 581 104 561 94 l 611 31 q 515 -6 568 -6 q 415 57 436 -6 m 218 113 q 226 108 218 113 q 250 99 233 103 q 288 96 267 96 q 330 105 308 96 q 367 126 351 114 q 407 182 396 149 l 407 301 q 272 287 315 301 q 206 249 229 272 q 182 192 182 226 q 192 141 182 158 q 218 113 203 124 m 174 878 l 257 976 l 300 965 l 449 746 l 397 694 l 174 878 z "},"á":{"ha":639,"x_min":50,"x_max":611,"o":"m 415 57 q 260 -7 354 -7 q 108 46 165 -7 q 50 172 50 99 q 80 289 50 246 q 158 357 110 332 q 407 403 243 400 l 407 501 q 381 552 407 529 q 301 575 356 575 q 225 553 250 575 l 197 463 l 51 506 q 208 661 83 621 q 308 675 253 675 q 474 621 417 675 q 532 479 532 567 l 532 124 q 551 94 532 94 q 581 104 561 94 l 611 31 q 515 -6 568 -6 q 415 57 436 -6 m 218 113 q 226 108 218 113 q 250 99 233 103 q 288 96 267 96 q 330 105 308 96 q 367 126 351 114 q 407 182 396 149 l 407 301 q 272 287 315 301 q 206 249 229 272 q 182 192 182 226 q 192 141 182 158 q 218 113 203 124 m 343 1003 l 388 1014 l 471 903 l 240 735 l 183 796 l 343 1003 z "},"â":{"ha":639,"x_min":50,"x_max":611,"o":"m 83 751 l 268 972 l 314 972 l 500 750 l 492 735 l 383 735 l 290 807 l 197 735 l 90 735 l 83 751 m 415 57 q 260 -7 354 -7 q 108 46 165 -7 q 50 172 50 99 q 80 289 50 246 q 158 357 110 332 q 407 403 243 400 l 407 501 q 381 552 407 529 q 301 575 356 575 q 225 553 250 575 l 197 463 l 51 506 q 208 661 83 621 q 308 675 253 675 q 474 621 417 675 q 532 479 532 567 l 532 124 q 551 94 532 94 q 581 104 561 94 l 611 31 q 515 -6 568 -6 q 415 57 436 -6 m 218 113 q 226 108 218 113 q 250 99 233 103 q 288 96 267 96 q 330 105 308 96 q 367 126 351 114 q 407 182 396 149 l 407 301 q 272 287 315 301 q 206 249 229 272 q 182 192 182 226 q 192 141 182 158 q 218 113 203 124 z "},"ã":{"ha":639,"x_min":50,"x_max":611,"o":"m 247 828 q 171 765 197 828 l 97 813 q 133 890 97 851 q 244 939 178 939 q 364 899 294 939 q 396 883 381 889 l 397 879 l 461 944 l 539 853 q 478 799 510 821 q 415 776 447 776 q 362 785 382 776 q 323 802 342 793 q 286 819 304 811 q 247 828 268 828 m 415 57 q 260 -7 354 -7 q 108 46 165 -7 q 50 172 50 99 q 80 289 50 246 q 158 357 110 332 q 407 403 243 400 l 407 501 q 381 552 407 529 q 301 575 356 575 q 225 553 250 575 l 197 463 l 51 506 q 208 661 83 621 q 308 675 253 675 q 474 621 417 675 q 532 479 532 567 l 532 124 q 551 94 532 94 q 581 104 561 94 l 611 31 q 515 -6 568 -6 q 415 57 436 -6 m 218 113 q 226 108 218 113 q 250 99 233 103 q 288 96 267 96 q 330 105 308 96 q 367 126 351 114 q 407 182 396 149 l 407 301 q 272 287 315 301 q 206 249 229 272 q 182 192 182 226 q 192 141 182 158 q 218 113 203 124 z "},"ä":{"ha":639,"x_min":50,"x_max":611,"o":"m 96 867 q 121 928 96 903 q 182 953 146 953 q 243 928 218 953 q 268 867 268 903 q 243 806 268 831 q 182 781 218 781 q 121 806 146 781 q 96 867 96 831 m 319 867 q 344 928 319 903 q 406 953 369 953 q 467 928 442 953 q 492 867 492 903 q 467 806 492 831 q 406 781 442 781 q 344 806 369 781 q 319 867 319 831 m 415 57 q 260 -7 354 -7 q 108 46 165 -7 q 50 172 50 99 q 80 289 50 246 q 158 357 110 332 q 407 403 243 400 l 407 501 q 381 552 407 529 q 301 575 356 575 q 225 553 250 575 l 197 463 l 51 506 q 208 661 83 621 q 308 675 253 675 q 474 621 417 675 q 532 479 532 567 l 532 124 q 551 94 532 94 q 581 104 561 94 l 611 31 q 515 -6 568 -6 q 415 57 436 -6 m 218 113 q 226 108 218 113 q 250 99 233 103 q 288 96 267 96 q 330 105 308 96 q 367 126 351 114 q 407 182 396 149 l 407 301 q 272 287 315 301 q 206 249 229 272 q 182 192 182 226 q 192 141 182 158 q 218 113 203 124 z "},"å":{"ha":639,"x_min":50,"x_max":611,"o":"m 264 875 q 278 840 264 854 q 314 825 293 825 q 350 840 335 825 q 365 875 365 854 q 350 910 365 896 q 314 925 335 925 q 278 910 293 925 q 264 875 264 896 m 182 875 q 220 969 182 931 q 315 1007 258 1007 q 409 969 371 1007 q 447 875 447 931 q 409 781 447 819 q 315 743 371 743 q 220 781 258 743 q 182 875 182 819 m 415 57 q 260 -7 354 -7 q 108 46 165 -7 q 50 172 50 99 q 80 289 50 246 q 158 357 110 332 q 407 403 243 400 l 407 501 q 381 552 407 529 q 301 575 356 575 q 225 553 250 575 l 197 463 l 51 506 q 208 661 83 621 q 308 675 253 675 q 474 621 417 675 q 532 479 532 567 l 532 124 q 551 94 532 94 q 581 104 561 94 l 611 31 q 515 -6 568 -6 q 415 57 436 -6 m 218 113 q 226 108 218 113 q 250 99 233 103 q 288 96 267 96 q 330 105 308 96 q 367 126 351 114 q 407 182 396 149 l 407 301 q 272 287 315 301 q 206 249 229 272 q 182 192 182 226 q 192 141 182 158 q 218 113 203 124 z "},"æ":{"ha":978,"x_min":50,"x_max":939,"o":"m 503 586 q 718 675 592 675 q 874 628 811 675 q 939 493 939 579 q 750 301 939 349 q 590 285 683 285 l 565 285 q 539 286 553 285 q 650 114 553 156 q 734 99 685 99 q 823 118 783 99 q 878 150 863 138 l 904 56 q 838 16 888 38 q 714 -6 788 -6 q 572 26 640 -6 q 458 124 503 57 q 335 6 422 38 q 263 -7 303 -7 q 108 46 165 -7 q 50 172 50 99 q 81 288 50 244 q 164 356 113 331 q 407 403 256 403 l 407 501 q 381 552 407 529 q 301 575 356 575 q 225 553 250 575 l 197 463 l 51 506 q 208 661 83 621 q 308 675 253 675 q 503 586 443 675 m 407 301 q 182 186 182 301 q 218 114 182 138 q 276 96 243 96 q 330 105 308 96 q 367 126 351 114 q 407 182 396 149 l 407 301 m 788 542 q 783 548 788 542 q 759 563 778 554 q 713 571 740 571 q 656 560 685 571 q 604 525 628 549 q 539 389 549 472 l 590 389 q 724 402 682 389 q 786 435 765 415 q 807 478 807 456 q 803 516 807 501 q 788 542 799 531 z "},"ç":{"ha":599,"x_min":50,"x_max":578,"o":"m 519 156 l 550 58 q 396 -3 488 8 l 379 -51 q 444 -87 415 -61 q 474 -165 474 -112 q 431 -253 474 -218 q 314 -289 389 -289 q 192 -262 257 -289 l 238 -171 l 313 -222 q 375 -193 354 -222 q 382 -167 382 -182 q 283 -106 382 -106 l 267 -85 l 296 -1 q 125 94 190 17 q 50 324 50 182 q 147 600 50 506 q 349 675 225 675 q 506 628 439 675 q 578 549 560 590 l 440 483 l 396 564 q 350 571 368 571 q 182 326 182 571 q 233 160 182 222 q 367 99 283 99 q 449 113 406 99 q 519 156 492 128 z "},"è":{"ha":629,"x_min":49,"x_max":567,"o":"m 500 828 l 443 768 l 215 935 l 297 1044 l 342 1033 l 500 828 m 567 492 q 549 568 567 533 q 503 626 532 603 q 349 675 440 675 q 140 586 224 675 q 49 329 49 490 q 139 78 49 165 q 365 -6 224 -6 q 540 40 461 -6 q 563 56 557 50 l 532 153 q 433 106 500 121 q 369 99 407 99 q 300 111 332 99 q 244 144 268 124 q 188 256 203 183 q 496 333 401 258 q 567 492 567 390 m 353 569 q 414 544 393 569 q 435 481 435 519 q 408 416 435 442 q 343 378 382 390 q 181 358 282 358 q 238 519 189 463 q 353 569 282 569 z "},"é":{"ha":617,"x_min":49,"x_max":567,"o":"m 567 492 q 552 408 567 449 q 496 333 538 367 q 188 256 401 258 q 300 111 210 146 q 369 99 332 99 q 433 105 407 99 q 479 119 460 111 q 532 153 517 138 l 563 56 q 511 25 547 40 q 239 15 372 -32 q 72 183 118 58 q 49 330 49 246 q 74 478 49 414 q 140 586 99 543 q 349 675 224 675 q 503 626 440 675 q 567 492 567 575 m 435 481 q 435 500 435 481 q 414 544 435 519 q 353 569 393 569 q 287 557 314 569 q 238 519 260 544 q 181 358 189 463 q 332 374 282 358 q 408 416 382 390 q 435 481 435 442 m 376 1003 l 421 1014 l 504 903 l 274 735 l 217 796 l 376 1003 z "},"ê":{"ha":629,"x_min":49,"x_max":567,"o":"m 135 751 l 319 972 l 365 972 l 551 750 l 543 735 l 435 735 l 342 807 l 249 735 l 142 735 l 135 751 m 567 492 q 552 408 567 449 q 496 333 538 367 q 188 256 401 258 q 300 111 210 146 q 369 99 332 99 q 433 105 407 99 q 479 119 460 111 q 532 153 517 138 l 563 56 q 511 25 547 40 q 239 15 372 -32 q 72 183 118 58 q 49 330 49 246 q 74 478 49 414 q 140 586 99 543 q 349 675 224 675 q 503 626 440 675 q 567 492 567 575 m 435 481 q 435 500 435 481 q 414 544 435 519 q 353 569 393 569 q 287 557 314 569 q 238 519 260 544 q 181 358 189 463 q 332 374 282 358 q 408 416 382 390 q 435 481 435 442 z "},"ë":{"ha":629,"x_min":49,"x_max":567,"o":"m 222 793 q 206 793 222 793 q 169 815 190 793 q 147 869 147 838 q 169 924 147 901 q 223 946 190 946 q 278 923 256 946 q 300 869 300 900 q 277 815 300 838 q 222 793 254 793 m 431 793 q 415 793 431 793 q 377 816 399 793 q 356 870 356 839 q 377 924 356 901 q 431 946 399 946 q 486 923 464 946 q 508 869 508 900 q 485 815 508 838 q 431 793 463 793 m 567 492 q 552 408 567 449 q 496 333 538 367 q 188 256 401 258 q 300 111 210 146 q 369 99 332 99 q 433 105 407 99 q 479 119 460 111 q 532 153 517 138 l 563 56 q 511 25 547 40 q 239 15 372 -32 q 72 183 118 58 q 49 330 49 246 q 74 478 49 414 q 140 586 99 543 q 349 675 224 675 q 503 626 440 675 q 567 492 567 575 m 435 481 q 435 500 435 481 q 414 544 435 519 q 353 569 393 569 q 287 557 314 569 q 238 519 260 544 q 181 358 189 463 q 332 374 282 358 q 408 416 382 390 q 435 481 435 442 z "},"ì":{"ha":372,"x_min":40,"x_max":338,"o":"m 271 738 l 40 904 l 124 1015 l 168 1004 l 326 797 l 271 738 m 256 631 l 211 675 l 40 644 l 54 561 l 131 567 l 131 94 l 44 75 l 60 0 l 338 0 l 338 75 l 256 97 l 256 631 z "},"í":{"ha":372,"x_min":40,"x_max":338,"o":"m 204 1003 l 249 1014 l 331 903 l 101 736 l 44 796 l 204 1003 m 256 97 l 338 75 l 338 0 l 60 0 l 44 75 l 131 94 l 131 567 l 54 561 l 40 644 l 211 675 l 256 631 l 256 97 z "},"î":{"ha":372,"x_min":-15,"x_max":365,"o":"m 158 965 l 192 965 l 365 757 l 358 746 l 265 746 l 174 821 l 81 746 l -10 746 l -15 756 l 158 965 m 256 97 l 338 75 l 338 0 l 60 0 l 44 75 l 131 94 l 131 567 l 54 561 l 40 644 l 211 675 l 256 631 l 256 97 z "},"ï":{"ha":372,"x_min":-1,"x_max":346,"o":"m 267 793 q 252 793 267 793 q 214 816 236 793 q 192 870 192 839 q 214 924 192 901 q 268 946 236 946 q 323 923 300 946 q 346 869 346 900 q 322 815 346 838 q 267 793 299 793 m 74 793 q 58 793 74 793 q 20 815 42 793 q -1 869 -1 838 q 20 924 -1 901 q 74 946 42 946 q 129 923 107 946 q 151 869 151 900 q 128 815 151 838 q 74 793 106 793 m 256 97 l 338 75 l 338 0 l 60 0 l 44 75 l 131 94 l 131 567 l 54 561 l 40 644 l 211 675 l 256 631 l 256 97 z "},"ð":{"ha":710,"x_min":49,"x_max":651,"o":"m 313 808 q 172 890 256 851 l 224 1014 q 429 889 328 974 l 578 990 l 646 879 l 511 803 q 651 444 639 647 l 651 417 q 579 128 651 243 q 343 -6 496 -6 q 119 92 199 -6 q 49 297 49 176 q 122 519 49 426 q 321 614 200 614 q 497 550 436 614 q 392 736 467 656 l 244 653 l 200 732 l 313 808 m 344 114 q 510 300 476 114 q 456 450 510 396 q 335 496 410 496 q 217 435 257 496 q 181 297 181 382 q 226 163 181 213 q 344 114 272 114 z "},"ñ":{"ha":736,"x_min":40,"x_max":707,"o":"m 251 624 q 418 675 318 675 q 608 569 563 675 q 624 481 624 533 l 624 99 l 707 75 l 707 0 l 431 0 l 414 75 l 499 94 l 499 460 q 469 545 499 522 q 397 568 440 568 q 314 550 354 568 q 256 514 274 532 l 256 97 l 336 75 l 336 0 l 60 0 l 43 75 l 131 94 l 131 567 l 54 561 l 40 644 q 82 652 58 647 q 129 661 106 657 q 175 669 153 665 q 211 675 197 672 l 251 624 m 317 828 q 240 765 267 828 l 167 813 q 203 890 167 851 q 314 939 247 939 q 433 899 364 939 q 465 883 450 889 l 467 879 l 531 944 l 608 853 q 548 799 579 821 q 484 776 517 776 q 431 785 451 776 q 392 802 411 793 q 356 819 374 811 q 317 828 338 828 z "},"ò":{"ha":688,"x_min":50,"x_max":639,"o":"m 447 736 l 217 904 l 300 1015 l 344 1004 l 503 796 l 447 736 m 182 329 q 274 553 182 499 q 344 571 304 571 q 463 506 419 571 q 507 326 507 442 q 461 155 507 211 q 343 99 415 99 q 226 156 271 99 q 182 329 182 214 m 50 340 q 72 197 50 260 q 133 89 93 133 q 344 -6 215 -6 q 550 83 468 -6 q 639 338 639 176 q 556 583 639 492 q 344 675 472 675 q 139 589 219 675 q 50 340 50 496 z "},"ó":{"ha":688,"x_min":50,"x_max":639,"o":"m 381 1003 l 425 1014 l 508 903 l 278 735 l 221 796 l 381 1003 m 182 326 q 182 270 182 326 q 226 156 182 214 q 343 99 271 99 q 461 155 415 99 q 507 326 507 211 q 463 506 507 442 q 344 571 419 571 q 222 503 265 571 q 182 326 182 438 m 50 340 q 74 483 50 421 q 139 589 97 546 q 344 675 219 675 q 556 583 472 675 q 639 338 639 492 q 550 83 639 176 q 344 -6 468 -6 q 133 89 215 -6 q 50 340 50 182 z "},"ô":{"ha":686,"x_min":50,"x_max":639,"o":"m 325 965 l 358 965 l 532 757 l 526 746 l 435 746 l 342 821 l 249 746 l 158 746 l 151 756 l 325 965 m 182 326 q 182 270 182 326 q 226 156 182 214 q 343 99 271 99 q 461 155 415 99 q 507 326 507 211 q 463 506 507 442 q 344 571 419 571 q 222 503 265 571 q 182 326 182 438 m 50 340 q 74 483 50 421 q 139 589 97 546 q 344 675 219 675 q 556 583 472 675 q 639 338 639 492 q 550 83 639 176 q 344 -6 468 -6 q 133 89 215 -6 q 50 340 50 182 z "},"õ":{"ha":686,"x_min":50,"x_max":639,"o":"m 496 943 l 574 851 q 513 798 543 819 q 449 776 483 776 q 395 784 415 776 q 357 801 375 792 q 281 826 311 826 q 231 807 250 826 q 206 764 213 788 l 131 811 q 167 889 131 850 q 278 939 214 939 q 397 899 326 939 q 431 883 415 889 l 432 879 l 496 943 m 182 326 q 182 270 182 326 q 226 156 182 214 q 343 99 271 99 q 461 155 415 99 q 507 326 507 211 q 463 506 507 442 q 344 571 419 571 q 222 503 265 571 q 182 326 182 438 m 50 340 q 74 483 50 421 q 139 589 97 546 q 344 675 219 675 q 556 583 472 675 q 639 338 639 492 q 550 83 639 176 q 344 -6 468 -6 q 133 89 215 -6 q 50 340 50 182 z "},"ö":{"ha":686,"x_min":50,"x_max":639,"o":"m 450 793 q 434 793 450 793 q 397 816 418 793 q 375 870 375 839 q 397 924 375 901 q 451 946 418 946 q 506 923 483 946 q 528 869 528 900 q 505 815 528 838 q 450 793 482 793 m 242 793 q 226 793 242 793 q 188 815 210 793 q 167 869 167 838 q 188 924 167 901 q 242 946 210 946 q 297 923 275 946 q 319 869 319 900 q 297 815 319 838 q 242 793 274 793 m 182 326 q 182 270 182 326 q 226 156 182 214 q 343 99 271 99 q 461 155 415 99 q 507 326 507 211 q 463 506 507 442 q 344 571 419 571 q 222 503 265 571 q 182 326 182 438 m 50 340 q 74 483 50 421 q 139 589 97 546 q 344 675 219 675 q 556 583 472 675 q 639 338 639 492 q 550 83 639 176 q 344 -6 468 -6 q 133 89 215 -6 q 50 340 50 182 z "},"÷":{"ha":582,"x_min":63,"x_max":519,"o":"m 297 115 q 281 115 297 115 q 244 138 265 115 q 222 192 222 161 q 244 246 222 224 q 298 268 265 268 q 353 245 331 268 q 375 191 375 222 q 352 138 375 160 q 297 115 329 115 m 297 544 q 281 544 297 544 q 244 567 265 544 q 222 621 222 589 q 244 675 222 653 q 298 697 265 697 q 353 674 331 697 q 375 620 375 651 q 352 567 375 589 q 297 544 329 544 m 519 458 l 519 353 l 63 353 l 63 458 l 519 458 z "},"ø":{"ha":686,"x_min":50,"x_max":638,"o":"m 158 63 q 50 338 50 156 q 139 589 50 494 q 344 675 219 675 q 429 663 386 675 l 503 824 l 621 824 q 619 806 621 824 l 531 608 q 638 338 638 514 q 550 83 638 176 q 344 -6 467 -6 q 258 7 303 -6 l 194 -136 l 81 -136 l 76 -118 l 158 63 m 344 99 q 460 155 415 99 q 506 317 506 211 q 474 483 506 424 l 303 104 q 344 99 319 99 m 385 563 q 344 568 365 568 q 223 501 264 568 q 182 335 182 435 q 211 181 182 235 l 385 563 z "},"ù":{"ha":708,"x_min":17,"x_max":669,"o":"m 625 93 q 600 139 600 93 l 600 629 l 560 676 l 390 644 l 403 564 l 475 564 l 475 174 q 422 119 463 142 q 358 100 386 100 q 308 105 329 100 q 269 125 286 110 q 232 253 232 161 l 232 629 l 189 675 l 17 644 l 31 564 l 107 564 l 107 224 q 174 47 107 108 q 329 -6 232 -6 q 485 57 419 -6 q 579 -6 507 -6 q 669 33 631 -6 l 650 96 l 625 93 m 389 736 l 160 904 l 242 1015 l 286 1004 l 446 796 l 389 736 z "},"ú":{"ha":708,"x_min":17,"x_max":669,"o":"m 485 57 q 329 -6 419 -6 q 125 119 176 -6 q 107 224 107 163 l 107 564 l 31 564 l 17 644 l 189 675 l 232 629 l 232 253 q 308 106 232 122 q 348 100 329 100 q 385 105 367 100 q 422 119 404 110 q 475 174 463 142 l 475 564 l 403 564 l 390 644 l 560 676 l 600 629 l 600 139 q 625 93 600 93 l 650 96 l 669 33 q 579 -6 631 -6 q 485 57 507 -6 m 367 1003 l 411 1014 l 494 903 l 264 735 l 207 796 l 367 1003 z "},"û":{"ha":708,"x_min":17,"x_max":669,"o":"m 485 57 q 329 -6 419 -6 q 125 119 176 -6 q 107 224 107 163 l 107 564 l 31 564 l 17 644 l 189 675 l 232 629 l 232 253 q 308 106 232 122 q 348 100 329 100 q 385 105 367 100 q 422 119 404 110 q 475 174 463 142 l 475 564 l 403 564 l 390 644 l 560 676 l 600 629 l 600 139 q 625 93 600 93 l 650 96 l 669 33 q 579 -6 631 -6 q 485 57 507 -6 m 310 965 l 343 965 l 517 757 l 510 746 l 417 746 l 325 821 l 232 746 l 142 746 l 136 756 l 310 965 z "},"ü":{"ha":708,"x_min":17,"x_max":669,"o":"m 249 793 q 233 793 249 793 q 195 815 217 793 q 174 869 174 838 q 195 924 174 901 q 249 946 217 946 q 304 923 282 946 q 326 869 326 900 q 303 815 326 838 q 249 793 281 793 m 457 793 q 441 793 457 793 q 403 816 425 793 q 382 870 382 839 q 403 924 382 901 q 458 946 425 946 q 513 923 490 946 q 535 869 535 900 q 512 815 535 838 q 457 793 489 793 m 485 57 q 329 -6 419 -6 q 125 119 176 -6 q 107 224 107 163 l 107 564 l 31 564 l 17 644 l 189 675 l 232 629 l 232 253 q 308 106 232 122 q 348 100 329 100 q 385 105 367 100 q 422 119 404 110 q 475 174 463 142 l 475 564 l 403 564 l 390 644 l 560 676 l 600 629 l 600 139 q 625 93 600 93 l 650 96 l 669 33 q 579 -6 631 -6 q 485 57 507 -6 z "},"ý":{"ha":667,"x_min":1,"x_max":658,"o":"m 86 -231 q 168 -278 125 -278 q 244 -194 213 -278 q 263 -150 254 -171 l 293 -68 l 68 578 l 13 578 l 1 664 l 174 675 l 361 113 l 536 578 l 464 578 l 454 663 l 622 675 l 658 628 q 435 20 533 274 q 320 -266 336 -233 q 283 -325 304 -299 q 158 -382 235 -382 q 35 -326 97 -382 l 86 -231 m 351 1003 l 396 1014 l 479 903 l 249 735 l 192 796 l 351 1003 z "},"þ":{"ha":683,"x_min":6,"x_max":633,"o":"m 221 17 q 224 -46 224 -28 l 224 -269 l 390 -303 l 390 -379 l 31 -379 l 21 -304 l 97 -286 l 97 917 l 18 911 l 6 994 l 182 1021 l 224 976 l 224 638 q 351 675 282 675 q 471 651 421 675 q 557 585 521 628 q 633 343 633 493 q 531 64 633 154 q 336 -6 451 -6 q 221 17 267 -6 m 336 568 q 272 555 303 568 q 224 522 240 542 l 224 133 q 267 109 236 119 q 328 99 297 99 q 388 109 358 99 q 442 147 417 119 q 501 335 501 208 q 450 514 501 451 q 336 568 408 568 z "},"ÿ":{"ha":664,"x_min":0,"x_max":656,"o":"m 81 -231 q 163 -278 119 -278 q 239 -194 207 -278 q 257 -150 249 -171 l 288 -68 l 63 583 l 11 583 l 0 664 l 168 675 l 356 113 l 535 583 l 461 583 l 451 663 l 621 675 l 656 628 q 463 106 544 314 q 356 -167 382 -101 q 315 -266 331 -233 q 278 -325 299 -299 q 153 -382 229 -382 q 29 -326 92 -382 l 81 -231 m 221 793 q 205 793 221 793 q 167 815 189 793 q 146 869 146 838 q 167 924 146 901 q 222 946 189 946 q 276 923 254 946 q 299 869 299 900 q 276 815 299 838 q 221 793 253 793 m 429 793 q 413 793 429 793 q 376 816 397 793 q 354 870 354 839 q 376 924 354 901 q 430 946 397 946 q 485 923 463 946 q 507 869 507 900 q 484 815 507 838 q 429 793 461 793 z "},"Œ":{"ha":1213,"x_min":60,"x_max":1161,"o":"m 542 0 q 451 -6 494 -6 q 157 139 263 -6 q 60 478 60 272 q 157 817 60 683 q 451 961 263 961 l 489 960 l 1124 960 l 1151 699 l 1064 699 l 1011 840 l 753 840 l 753 549 l 972 549 l 972 429 l 753 429 l 753 119 l 1025 119 l 1074 260 l 1161 260 l 1133 0 l 542 0 m 615 789 q 480 842 550 842 q 359 811 410 842 q 275 731 308 781 q 206 475 206 628 q 281 224 206 329 q 479 114 357 114 q 615 163 569 114 l 615 789 z "},"œ":{"ha":1076,"x_min":50,"x_max":1026,"o":"m 825 -6 q 572 108 657 -6 q 471 23 531 51 q 345 -6 411 -6 q 226 19 279 -6 q 133 89 172 43 q 50 338 50 182 q 139 589 50 496 q 344 675 219 675 q 576 557 493 675 q 681 645 619 615 q 797 675 742 675 q 892 663 853 675 q 961 626 932 650 q 1026 489 1026 575 q 956 333 1026 390 q 647 256 861 258 q 760 111 669 146 q 829 99 792 99 q 893 105 867 99 q 939 119 919 111 q 992 153 976 138 l 1022 56 q 971 25 1007 40 q 825 -6 897 -6 m 182 326 q 182 270 182 326 q 226 156 182 214 q 343 99 271 99 q 461 155 415 99 q 507 326 507 211 q 463 506 507 442 q 344 571 419 571 q 222 503 265 571 q 182 326 182 438 m 894 481 q 894 500 894 481 q 874 544 894 519 q 813 569 853 569 q 747 557 774 569 q 697 519 719 544 q 640 358 649 463 q 792 374 742 358 q 868 416 842 390 q 894 481 894 442 z "},"–":{"ha":669,"x_min":75,"x_max":590,"o":"m 75 522 l 590 522 l 590 418 l 75 418 l 75 522 z "},"—":{"ha":878,"x_min":75,"x_max":799,"o":"m 75 522 l 799 522 l 799 418 l 75 418 l 75 522 z "},"‘":{"ha":279,"x_min":53,"x_max":244,"o":"m 203 975 l 169 817 l 244 675 l 110 613 q 53 811 53 704 q 71 913 53 857 q 121 1017 89 969 l 197 994 l 203 975 z "},"’":{"ha":276,"x_min":42,"x_max":236,"o":"m 221 1015 q 236 909 236 954 q 224 821 236 864 q 194 742 213 778 q 114 626 161 674 l 42 668 l 42 688 l 111 829 l 75 989 l 221 1015 z "},"‚":{"ha":294,"x_min":50,"x_max":226,"o":"m 50 -135 l 107 10 l 56 165 l 193 206 q 213 156 200 194 q 226 71 226 118 q 215 -16 226 24 q 186 -89 204 -56 q 113 -194 156 -151 l 50 -151 l 50 -135 z "},"“":{"ha":464,"x_min":61,"x_max":414,"o":"m 263 629 q 247 735 247 690 q 257 824 247 781 q 281 903 267 867 q 342 1018 304 965 l 414 976 l 414 957 l 372 815 l 408 656 l 263 629 m 228 957 l 186 815 l 222 628 l 76 599 q 73 620 75 604 q 68 656 71 636 q 61 735 61 707 q 143 1018 61 875 l 228 976 l 228 957 z "},"”":{"ha":457,"x_min":54,"x_max":407,"o":"m 206 974 q 221 867 221 913 q 211 779 221 822 q 188 700 201 736 q 126 585 164 638 l 54 626 l 54 646 l 96 788 l 60 947 l 206 974 m 240 646 l 282 788 l 246 975 l 392 1004 q 395 983 393 999 q 400 947 397 967 q 407 868 407 896 q 325 585 407 728 l 240 626 l 240 646 z "},"„":{"ha":481,"x_min":46,"x_max":413,"o":"m 381 217 q 413 32 413 121 q 342 -175 413 -69 q 300 -225 321 -206 l 224 -183 l 224 -167 l 294 -21 l 243 176 l 381 217 m 46 -151 l 103 -21 l 51 135 l 183 175 q 201 118 189 163 q 214 29 214 74 q 203 -49 214 -15 q 176 -112 193 -82 q 103 -211 146 -168 l 46 -168 l 46 -151 z "},"•":{"ha":360,"x_min":60,"x_max":300,"o":"m 60 532 q 94 617 60 582 q 179 653 129 653 q 265 617 229 653 q 300 532 300 582 q 265 447 300 482 q 179 413 229 413 q 94 447 129 413 q 60 532 60 482 z "},"‹":{"ha":485,"x_min":15,"x_max":415,"o":"m 15 436 l 408 736 l 415 733 l 415 607 l 167 417 l 415 228 l 415 101 l 407 97 l 15 400 l 15 436 z "},"›":{"ha":486,"x_min":69,"x_max":469,"o":"m 469 400 l 78 97 l 69 101 l 69 228 l 318 417 l 69 607 l 69 733 l 76 736 l 469 436 l 469 400 z "},"€":{"ha":790,"x_min":43,"x_max":738,"o":"m 490 -6 q 135 308 197 -6 l 43 308 l 43 414 l 122 414 q 121 440 121 428 l 121 483 l 43 483 l 43 589 l 128 589 q 249 872 151 781 q 504 963 347 963 q 711 939 632 963 l 738 694 l 643 694 l 589 831 q 503 843 556 843 q 407 824 450 843 q 336 769 364 804 q 272 589 285 704 l 625 589 l 625 483 l 267 483 l 268 414 l 625 414 l 625 308 l 279 308 q 349 167 297 213 q 514 114 407 114 q 619 132 574 114 q 686 167 664 150 l 726 57 q 490 -6 639 -6 z "}}}
